<svg xmlns="http://www.w3.org/2000/svg" version="1.1" xmlns:xlink="http://www.w3.org/1999/xlink" xmlns:svgjs="http://svgjs.com/svgjs" width="1536" height="519" preserveAspectRatio="none" viewBox="0 0 1536 519"><g mask="url(&quot;#SvgjsMask1037&quot;)" fill="none"><rect width="1536" height="519" x="0" y="0" fill="#0e2a47"></rect><path d="M350.3704474988643-13.836240167841588L392.13733214698254 79.97371868324751 485.94729099807165 38.20683403512925 444.1804063499534-55.60312481595986z" fill="rgba(28, 83, 142, 0.4)" class="triangle-float1"></path><path d="M237.08023537394428 7.218269484965145L98.56329921311479 74.7774933188987 166.12252304704833 213.29442947972817 304.63945920787785 145.73520564579462z" fill="rgba(28, 83, 142, 0.4)" class="triangle-float1"></path><path d="M845.6219034039875 297.0498738780245L835.915242602192 389.40258237982323 928.2679511039908 399.10924318161875 937.9746119057862 306.75653467982z" fill="rgba(28, 83, 142, 0.4)" class="triangle-float3"></path><path d="M1207.1750007331698 333.492618152985L1138.148724320656 218.6136025765826 1023.2697087442534 287.63987898909653 1092.2959851567673 402.51889456549895z" fill="rgba(28, 83, 142, 0.4)" class="triangle-float1"></path><path d="M972.7867119698643 265.31366219661663L1078.6512325484898 250.43537410912816 1063.7729444610013 144.57085353050257 957.9084238823758 159.44914161799107z" fill="rgba(28, 83, 142, 0.4)" class="triangle-float1"></path><path d="M502.1570005135577 506.84776938138134L438.6735777368543 382.2545369143984 314.0803452698714 445.73795969110176 377.56376804657475 570.3311921580847z" fill="rgba(28, 83, 142, 0.4)" class="triangle-float2"></path><path d="M1445.0540095262531 324.3769512627357L1424.745563784839 419.92067657450207 1520.2892890966054 440.2291223159162 1540.5977348380195 344.6853970041498z" fill="rgba(28, 83, 142, 0.4)" class="triangle-float3"></path><path d="M868.6645387373502 298.40793401649955L773.8365814566562 327.30095842433155 836.1723649912375 387.49792485248037z" fill="rgba(28, 83, 142, 0.4)" class="triangle-float1"></path><path d="M427.9469458783485 428.0883964359323L486.48824872884416 358.32158844870844 416.7214407416203 299.78028559821274 358.1801378911247 369.54709358543664z" fill="rgba(28, 83, 142, 0.4)" class="triangle-float3"></path><path d="M1344.2012705260856 421.20470986641374L1302.9383928150005 461.05180768824573 1383.3404784032912 503.02257534395756z" fill="rgba(28, 83, 142, 0.4)" class="triangle-float2"></path><path d="M1044.2205218581207 71.64335967720665L1145.2049365720836 179.93588621661672 1152.5130483975308-29.341055036756288z" fill="rgba(28, 83, 142, 0.4)" class="triangle-float3"></path><path d="M728.8904425099266 265.79017374602637L810.8362258336238 360.0580139865857 905.104066074183 278.11223066288863 823.158282750486 183.84439042232927z" fill="rgba(28, 83, 142, 0.4)" class="triangle-float3"></path><path d="M226.8160381623565 243.23244075153954L143.27340197196907 297.4856630493143 197.52662426974382 381.0282992397017 281.06926046013126 326.77507694192695z" fill="rgba(28, 83, 142, 0.4)" class="triangle-float1"></path><path d="M85.49370284229501-15.4553423447712L118.54603572926098 99.81184076787153 233.81321884190373 66.75950788090556 200.76088595493775-48.50767523173717z" fill="rgba(28, 83, 142, 0.4)" class="triangle-float3"></path><path d="M552.9004235706705-11.471312268651685L418.475636315084-27.97660074629521 401.9703478374405 106.44818650929122 536.395135093027 122.95347498693475z" fill="rgba(28, 83, 142, 0.4)" class="triangle-float2"></path><path d="M114.22939689532065 5.019430982664318L212.1941598468994 99.62290289163967 306.79763175587476 1.65813994006092 208.832868804296-92.94533196891443z" fill="rgba(28, 83, 142, 0.4)" class="triangle-float2"></path><path d="M644.4089957580039 321.07341200071824L595.138212857069 177.98066834821915 452.0454692045699 227.25145124915412 501.3162521055049 370.34419490165317z" fill="rgba(28, 83, 142, 0.4)" class="triangle-float1"></path><path d="M1251.3428762732676 76.03712091713129L1171.0264185983547 162.16597702772978 1257.1552747089531 242.48243470264282 1337.471732383866 156.3535785920443z" fill="rgba(28, 83, 142, 0.4)" class="triangle-float3"></path><path d="M1445.8256646023167 29.983458845309322L1386.78263823557 141.02724112739102 1556.8694468843985 89.02648521205597z" fill="rgba(28, 83, 142, 0.4)" class="triangle-float2"></path></g><defs><mask id="SvgjsMask1037"><rect width="1536" height="519" fill="#ffffff"></rect></mask><style>
            @keyframes float1 {
                0%{transform: translate(0, 0)}
                50%{transform: translate(-10px, 0)}
                100%{transform: translate(0, 0)}
            }

            .triangle-float1 {
                animation: float1 5s infinite;
            }

            @keyframes float2 {
                0%{transform: translate(0, 0)}
                50%{transform: translate(-5px, -5px)}
                100%{transform: translate(0, 0)}
            }

            .triangle-float2 {
                animation: float2 4s infinite;
            }

            @keyframes float3 {
                0%{transform: translate(0, 0)}
                50%{transform: translate(0, -10px)}
                100%{transform: translate(0, 0)}
            }

            .triangle-float3 {
                animation: float3 6s infinite;
            }
        </style></defs></svg>