<svg xmlns="http://www.w3.org/2000/svg" version="1.1" xmlns:xlink="http://www.w3.org/1999/xlink" xmlns:svgjs="http://svgjs.com/svgjs" width="1536" height="719" preserveAspectRatio="none" viewBox="0 0 1536 719"><g mask="url(&quot;#SvgjsMask1721&quot;)" fill="none"><rect width="1536" height="719" x="0" y="0" fill="rgba(27, 61, 95, 1)"></rect><path d="M33.9 -12.4L70.27 8.6L70.27 50.6L33.9 71.6L-2.47 50.6L-2.47 8.6zM70.27 50.6L106.65 71.6L106.65 113.6L70.27 134.6L33.9 113.6L33.9 71.6zM70.27 176.6L106.65 197.6L106.65 239.6L70.27 260.6L33.9 239.6L33.9 197.6zM33.9 365.6L70.27 386.6L70.27 428.6L33.9 449.6L-2.47 428.6L-2.47 386.6zM70.27 680.6L106.65 701.6L106.65 743.6L70.27 764.6L33.9 743.6L33.9 701.6zM106.65 -12.4L143.02 8.6L143.02 50.6L106.65 71.6L70.27 50.6L70.27 8.6zM143.02 50.6L179.4 71.6L179.4 113.6L143.02 134.6L106.65 113.6L106.65 71.6zM106.65 491.6L143.02 512.6L143.02 554.6L106.65 575.6L70.27 554.6L70.27 512.6zM106.65 617.6L143.02 638.6L143.02 680.6L106.65 701.6L70.27 680.6L70.27 638.6zM215.77 50.6L252.14 71.6L252.14 113.6L215.77 134.6L179.4 113.6L179.4 71.6zM179.4 491.6L215.77 512.6L215.77 554.6L179.4 575.6L143.02 554.6L143.02 512.6zM215.77 554.6L252.14 575.6L252.14 617.6L215.77 638.6L179.4 617.6L179.4 575.6zM179.4 617.6L215.77 638.6L215.77 680.6L179.4 701.6L143.02 680.6L143.02 638.6zM215.77 680.6L252.14 701.6L252.14 743.6L215.77 764.6L179.4 743.6L179.4 701.6zM288.52 50.6L324.89 71.6L324.89 113.6L288.52 134.6L252.14 113.6L252.14 71.6zM288.52 176.6L324.89 197.6L324.89 239.6L288.52 260.6L252.14 239.6L252.14 197.6zM252.14 239.6L288.52 260.6L288.52 302.6L252.14 323.6L215.77 302.6L215.77 260.6zM288.52 302.6L324.89 323.6L324.89 365.6L288.52 386.6L252.14 365.6L252.14 323.6zM252.14 365.6L288.52 386.6L288.52 428.6L252.14 449.6L215.77 428.6L215.77 386.6zM288.52 428.6L324.89 449.6L324.89 491.6L288.52 512.6L252.14 491.6L252.14 449.6zM288.52 554.6L324.89 575.6L324.89 617.6L288.52 638.6L252.14 617.6L252.14 575.6zM252.14 617.6L288.52 638.6L288.52 680.6L252.14 701.6L215.77 680.6L215.77 638.6zM288.52 680.6L324.89 701.6L324.89 743.6L288.52 764.6L252.14 743.6L252.14 701.6zM361.27 50.6L397.64 71.6L397.64 113.6L361.27 134.6L324.89 113.6L324.89 71.6zM324.89 113.6L361.27 134.6L361.27 176.6L324.89 197.6L288.52 176.6L288.52 134.6zM324.89 365.6L361.27 386.6L361.27 428.6L324.89 449.6L288.52 428.6L288.52 386.6zM361.27 428.6L397.64 449.6L397.64 491.6L361.27 512.6L324.89 491.6L324.89 449.6zM397.64 -12.4L434.02 8.6L434.02 50.6L397.64 71.6L361.27 50.6L361.27 8.6zM434.02 302.6L470.39 323.6L470.39 365.6L434.02 386.6L397.64 365.6L397.64 323.6zM397.64 365.6L434.02 386.6L434.02 428.6L397.64 449.6L361.27 428.6L361.27 386.6zM470.39 -12.4L506.76 8.6L506.76 50.6L470.39 71.6L434.02 50.6L434.02 8.6zM470.39 239.6L506.76 260.6L506.76 302.6L470.39 323.6L434.02 302.6L434.02 260.6zM470.39 365.6L506.76 386.6L506.76 428.6L470.39 449.6L434.02 428.6L434.02 386.6zM506.76 428.6L543.14 449.6L543.14 491.6L506.76 512.6L470.39 491.6L470.39 449.6zM506.76 554.6L543.14 575.6L543.14 617.6L506.76 638.6L470.39 617.6L470.39 575.6zM470.39 617.6L506.76 638.6L506.76 680.6L470.39 701.6L434.02 680.6L434.02 638.6zM506.76 680.6L543.14 701.6L543.14 743.6L506.76 764.6L470.39 743.6L470.39 701.6zM579.51 50.6L615.89 71.6L615.89 113.6L579.51 134.6L543.14 113.6L543.14 71.6zM543.14 113.6L579.51 134.6L579.51 176.6L543.14 197.6L506.76 176.6L506.76 134.6zM543.14 365.6L579.51 386.6L579.51 428.6L543.14 449.6L506.76 428.6L506.76 386.6zM579.51 428.6L615.89 449.6L615.89 491.6L579.51 512.6L543.14 491.6L543.14 449.6zM579.51 554.6L615.89 575.6L615.89 617.6L579.51 638.6L543.14 617.6L543.14 575.6zM615.89 -12.4L652.26 8.6L652.26 50.6L615.89 71.6L579.51 50.6L579.51 8.6zM615.89 113.6L652.26 134.6L652.26 176.6L615.89 197.6L579.51 176.6L579.51 134.6zM615.89 365.6L652.26 386.6L652.26 428.6L615.89 449.6L579.51 428.6L579.51 386.6zM688.63 -12.4L725.01 8.6L725.01 50.6L688.63 71.6L652.26 50.6L652.26 8.6zM725.01 176.6L761.38 197.6L761.38 239.6L725.01 260.6L688.63 239.6L688.63 197.6zM725.01 302.6L761.38 323.6L761.38 365.6L725.01 386.6L688.63 365.6L688.63 323.6zM688.63 365.6L725.01 386.6L725.01 428.6L688.63 449.6L652.26 428.6L652.26 386.6zM688.63 617.6L725.01 638.6L725.01 680.6L688.63 701.6L652.26 680.6L652.26 638.6zM725.01 680.6L761.38 701.6L761.38 743.6L725.01 764.6L688.63 743.6L688.63 701.6zM761.38 -12.4L797.76 8.6L797.76 50.6L761.38 71.6L725.01 50.6L725.01 8.6zM761.38 239.6L797.76 260.6L797.76 302.6L761.38 323.6L725.01 302.6L725.01 260.6zM797.76 302.6L834.13 323.6L834.13 365.6L797.76 386.6L761.38 365.6L761.38 323.6zM761.38 365.6L797.76 386.6L797.76 428.6L761.38 449.6L725.01 428.6L725.01 386.6zM761.38 491.6L797.76 512.6L797.76 554.6L761.38 575.6L725.01 554.6L725.01 512.6zM797.76 554.6L834.13 575.6L834.13 617.6L797.76 638.6L761.38 617.6L761.38 575.6zM761.38 617.6L797.76 638.6L797.76 680.6L761.38 701.6L725.01 680.6L725.01 638.6zM834.13 -12.4L870.5 8.6L870.5 50.6L834.13 71.6L797.76 50.6L797.76 8.6zM870.5 50.6L906.88 71.6L906.88 113.6L870.5 134.6L834.13 113.6L834.13 71.6zM834.13 113.6L870.5 134.6L870.5 176.6L834.13 197.6L797.76 176.6L797.76 134.6zM870.5 176.6L906.88 197.6L906.88 239.6L870.5 260.6L834.13 239.6L834.13 197.6zM834.13 365.6L870.5 386.6L870.5 428.6L834.13 449.6L797.76 428.6L797.76 386.6zM870.5 428.6L906.88 449.6L906.88 491.6L870.5 512.6L834.13 491.6L834.13 449.6zM834.13 491.6L870.5 512.6L870.5 554.6L834.13 575.6L797.76 554.6L797.76 512.6zM834.13 617.6L870.5 638.6L870.5 680.6L834.13 701.6L797.76 680.6L797.76 638.6zM870.5 680.6L906.88 701.6L906.88 743.6L870.5 764.6L834.13 743.6L834.13 701.6zM943.25 50.6L979.63 71.6L979.63 113.6L943.25 134.6L906.88 113.6L906.88 71.6zM943.25 176.6L979.63 197.6L979.63 239.6L943.25 260.6L906.88 239.6L906.88 197.6zM906.88 239.6L943.25 260.6L943.25 302.6L906.88 323.6L870.5 302.6L870.5 260.6zM906.88 365.6L943.25 386.6L943.25 428.6L906.88 449.6L870.5 428.6L870.5 386.6zM943.25 428.6L979.63 449.6L979.63 491.6L943.25 512.6L906.88 491.6L906.88 449.6zM943.25 680.6L979.63 701.6L979.63 743.6L943.25 764.6L906.88 743.6L906.88 701.6zM979.63 -12.4L1016 8.6L1016 50.6L979.63 71.6L943.25 50.6L943.25 8.6zM1016 50.6L1052.37 71.6L1052.37 113.6L1016 134.6L979.63 113.6L979.63 71.6zM979.63 113.6L1016 134.6L1016 176.6L979.63 197.6L943.25 176.6L943.25 134.6zM979.63 365.6L1016 386.6L1016 428.6L979.63 449.6L943.25 428.6L943.25 386.6zM979.63 491.6L1016 512.6L1016 554.6L979.63 575.6L943.25 554.6L943.25 512.6zM1088.75 50.6L1125.12 71.6L1125.12 113.6L1088.75 134.6L1052.37 113.6L1052.37 71.6zM1088.75 176.6L1125.12 197.6L1125.12 239.6L1088.75 260.6L1052.37 239.6L1052.37 197.6zM1052.37 239.6L1088.75 260.6L1088.75 302.6L1052.37 323.6L1016 302.6L1016 260.6zM1052.37 491.6L1088.75 512.6L1088.75 554.6L1052.37 575.6L1016 554.6L1016 512.6zM1088.75 554.6L1125.12 575.6L1125.12 617.6L1088.75 638.6L1052.37 617.6L1052.37 575.6zM1052.37 617.6L1088.75 638.6L1088.75 680.6L1052.37 701.6L1016 680.6L1016 638.6zM1088.75 680.6L1125.12 701.6L1125.12 743.6L1088.75 764.6L1052.37 743.6L1052.37 701.6zM1125.12 113.6L1161.5 134.6L1161.5 176.6L1125.12 197.6L1088.75 176.6L1088.75 134.6zM1161.5 176.6L1197.87 197.6L1197.87 239.6L1161.5 260.6L1125.12 239.6L1125.12 197.6zM1125.12 239.6L1161.5 260.6L1161.5 302.6L1125.12 323.6L1088.75 302.6L1088.75 260.6zM1161.5 302.6L1197.87 323.6L1197.87 365.6L1161.5 386.6L1125.12 365.6L1125.12 323.6zM1125.12 365.6L1161.5 386.6L1161.5 428.6L1125.12 449.6L1088.75 428.6L1088.75 386.6zM1161.5 680.6L1197.87 701.6L1197.87 743.6L1161.5 764.6L1125.12 743.6L1125.12 701.6zM1197.87 491.6L1234.25 512.6L1234.25 554.6L1197.87 575.6L1161.5 554.6L1161.5 512.6zM1197.87 617.6L1234.25 638.6L1234.25 680.6L1197.87 701.6L1161.5 680.6L1161.5 638.6zM1306.99 176.6L1343.37 197.6L1343.37 239.6L1306.99 260.6L1270.62 239.6L1270.62 197.6zM1270.62 365.6L1306.99 386.6L1306.99 428.6L1270.62 449.6L1234.25 428.6L1234.25 386.6zM1306.99 428.6L1343.37 449.6L1343.37 491.6L1306.99 512.6L1270.62 491.6L1270.62 449.6zM1306.99 554.6L1343.37 575.6L1343.37 617.6L1306.99 638.6L1270.62 617.6L1270.62 575.6zM1270.62 617.6L1306.99 638.6L1306.99 680.6L1270.62 701.6L1234.25 680.6L1234.25 638.6zM1343.37 113.6L1379.74 134.6L1379.74 176.6L1343.37 197.6L1306.99 176.6L1306.99 134.6zM1379.74 176.6L1416.12 197.6L1416.12 239.6L1379.74 260.6L1343.37 239.6L1343.37 197.6zM1379.74 428.6L1416.12 449.6L1416.12 491.6L1379.74 512.6L1343.37 491.6L1343.37 449.6zM1379.74 554.6L1416.12 575.6L1416.12 617.6L1379.74 638.6L1343.37 617.6L1343.37 575.6zM1343.37 617.6L1379.74 638.6L1379.74 680.6L1343.37 701.6L1306.99 680.6L1306.99 638.6zM1379.74 680.6L1416.12 701.6L1416.12 743.6L1379.74 764.6L1343.37 743.6L1343.37 701.6zM1452.49 176.6L1488.86 197.6L1488.86 239.6L1452.49 260.6L1416.12 239.6L1416.12 197.6zM1416.12 365.6L1452.49 386.6L1452.49 428.6L1416.12 449.6L1379.74 428.6L1379.74 386.6zM1416.12 491.6L1452.49 512.6L1452.49 554.6L1416.12 575.6L1379.74 554.6L1379.74 512.6zM1416.12 617.6L1452.49 638.6L1452.49 680.6L1416.12 701.6L1379.74 680.6L1379.74 638.6zM1488.86 -12.4L1525.24 8.6L1525.24 50.6L1488.86 71.6L1452.49 50.6L1452.49 8.6zM1488.86 113.6L1525.24 134.6L1525.24 176.6L1488.86 197.6L1452.49 176.6L1452.49 134.6zM1525.24 176.6L1561.61 197.6L1561.61 239.6L1525.24 260.6L1488.86 239.6L1488.86 197.6zM1488.86 239.6L1525.24 260.6L1525.24 302.6L1488.86 323.6L1452.49 302.6L1452.49 260.6zM1488.86 491.6L1525.24 512.6L1525.24 554.6L1488.86 575.6L1452.49 554.6L1452.49 512.6zM1561.61 -12.4L1597.99 8.6L1597.99 50.6L1561.61 71.6L1525.24 50.6L1525.24 8.6zM1597.99 176.6L1634.36 197.6L1634.36 239.6L1597.99 260.6L1561.61 239.6L1561.61 197.6zM1597.99 302.6L1634.36 323.6L1634.36 365.6L1597.99 386.6L1561.61 365.6L1561.61 323.6zM1561.61 365.6L1597.99 386.6L1597.99 428.6L1561.61 449.6L1525.24 428.6L1525.24 386.6z" stroke="rgba(76, 103, 130, 1)" stroke-width="2"></path><path d="M29.7 -12.4 a4.2 4.2 0 1 0 8.4 0 a4.2 4.2 0 1 0 -8.4 0zM66.07 8.6 a4.2 4.2 0 1 0 8.4 0 a4.2 4.2 0 1 0 -8.4 0zM66.07 50.6 a4.2 4.2 0 1 0 8.4 0 a4.2 4.2 0 1 0 -8.4 0zM29.7 71.6 a4.2 4.2 0 1 0 8.4 0 a4.2 4.2 0 1 0 -8.4 0zM-6.67 50.6 a4.2 4.2 0 1 0 8.4 0 a4.2 4.2 0 1 0 -8.4 0zM-6.67 8.6 a4.2 4.2 0 1 0 8.4 0 a4.2 4.2 0 1 0 -8.4 0zM102.45 71.6 a4.2 4.2 0 1 0 8.4 0 a4.2 4.2 0 1 0 -8.4 0zM102.45 113.6 a4.2 4.2 0 1 0 8.4 0 a4.2 4.2 0 1 0 -8.4 0zM66.07 134.6 a4.2 4.2 0 1 0 8.4 0 a4.2 4.2 0 1 0 -8.4 0zM29.7 113.6 a4.2 4.2 0 1 0 8.4 0 a4.2 4.2 0 1 0 -8.4 0zM66.07 176.6 a4.2 4.2 0 1 0 8.4 0 a4.2 4.2 0 1 0 -8.4 0zM102.45 197.6 a4.2 4.2 0 1 0 8.4 0 a4.2 4.2 0 1 0 -8.4 0zM102.45 239.6 a4.2 4.2 0 1 0 8.4 0 a4.2 4.2 0 1 0 -8.4 0zM66.07 260.6 a4.2 4.2 0 1 0 8.4 0 a4.2 4.2 0 1 0 -8.4 0zM29.7 239.6 a4.2 4.2 0 1 0 8.4 0 a4.2 4.2 0 1 0 -8.4 0zM29.7 197.6 a4.2 4.2 0 1 0 8.4 0 a4.2 4.2 0 1 0 -8.4 0zM29.7 365.6 a4.2 4.2 0 1 0 8.4 0 a4.2 4.2 0 1 0 -8.4 0zM66.07 386.6 a4.2 4.2 0 1 0 8.4 0 a4.2 4.2 0 1 0 -8.4 0zM66.07 428.6 a4.2 4.2 0 1 0 8.4 0 a4.2 4.2 0 1 0 -8.4 0zM29.7 449.6 a4.2 4.2 0 1 0 8.4 0 a4.2 4.2 0 1 0 -8.4 0zM-6.67 428.6 a4.2 4.2 0 1 0 8.4 0 a4.2 4.2 0 1 0 -8.4 0zM-6.67 386.6 a4.2 4.2 0 1 0 8.4 0 a4.2 4.2 0 1 0 -8.4 0zM66.07 680.6 a4.2 4.2 0 1 0 8.4 0 a4.2 4.2 0 1 0 -8.4 0zM102.45 701.6 a4.2 4.2 0 1 0 8.4 0 a4.2 4.2 0 1 0 -8.4 0zM102.45 743.6 a4.2 4.2 0 1 0 8.4 0 a4.2 4.2 0 1 0 -8.4 0zM66.07 764.6 a4.2 4.2 0 1 0 8.4 0 a4.2 4.2 0 1 0 -8.4 0zM29.7 743.6 a4.2 4.2 0 1 0 8.4 0 a4.2 4.2 0 1 0 -8.4 0zM29.7 701.6 a4.2 4.2 0 1 0 8.4 0 a4.2 4.2 0 1 0 -8.4 0zM102.45 -12.4 a4.2 4.2 0 1 0 8.4 0 a4.2 4.2 0 1 0 -8.4 0zM138.82 8.6 a4.2 4.2 0 1 0 8.4 0 a4.2 4.2 0 1 0 -8.4 0zM138.82 50.6 a4.2 4.2 0 1 0 8.4 0 a4.2 4.2 0 1 0 -8.4 0zM175.2 71.6 a4.2 4.2 0 1 0 8.4 0 a4.2 4.2 0 1 0 -8.4 0zM175.2 113.6 a4.2 4.2 0 1 0 8.4 0 a4.2 4.2 0 1 0 -8.4 0zM138.82 134.6 a4.2 4.2 0 1 0 8.4 0 a4.2 4.2 0 1 0 -8.4 0zM102.45 491.6 a4.2 4.2 0 1 0 8.4 0 a4.2 4.2 0 1 0 -8.4 0zM138.82 512.6 a4.2 4.2 0 1 0 8.4 0 a4.2 4.2 0 1 0 -8.4 0zM138.82 554.6 a4.2 4.2 0 1 0 8.4 0 a4.2 4.2 0 1 0 -8.4 0zM102.45 575.6 a4.2 4.2 0 1 0 8.4 0 a4.2 4.2 0 1 0 -8.4 0zM66.07 554.6 a4.2 4.2 0 1 0 8.4 0 a4.2 4.2 0 1 0 -8.4 0zM66.07 512.6 a4.2 4.2 0 1 0 8.4 0 a4.2 4.2 0 1 0 -8.4 0zM102.45 617.6 a4.2 4.2 0 1 0 8.4 0 a4.2 4.2 0 1 0 -8.4 0zM138.82 638.6 a4.2 4.2 0 1 0 8.4 0 a4.2 4.2 0 1 0 -8.4 0zM138.82 680.6 a4.2 4.2 0 1 0 8.4 0 a4.2 4.2 0 1 0 -8.4 0zM66.07 638.6 a4.2 4.2 0 1 0 8.4 0 a4.2 4.2 0 1 0 -8.4 0zM211.57 50.6 a4.2 4.2 0 1 0 8.4 0 a4.2 4.2 0 1 0 -8.4 0zM247.94 71.6 a4.2 4.2 0 1 0 8.4 0 a4.2 4.2 0 1 0 -8.4 0zM247.94 113.6 a4.2 4.2 0 1 0 8.4 0 a4.2 4.2 0 1 0 -8.4 0zM211.57 134.6 a4.2 4.2 0 1 0 8.4 0 a4.2 4.2 0 1 0 -8.4 0zM175.2 491.6 a4.2 4.2 0 1 0 8.4 0 a4.2 4.2 0 1 0 -8.4 0zM211.57 512.6 a4.2 4.2 0 1 0 8.4 0 a4.2 4.2 0 1 0 -8.4 0zM211.57 554.6 a4.2 4.2 0 1 0 8.4 0 a4.2 4.2 0 1 0 -8.4 0zM175.2 575.6 a4.2 4.2 0 1 0 8.4 0 a4.2 4.2 0 1 0 -8.4 0zM247.94 575.6 a4.2 4.2 0 1 0 8.4 0 a4.2 4.2 0 1 0 -8.4 0zM247.94 617.6 a4.2 4.2 0 1 0 8.4 0 a4.2 4.2 0 1 0 -8.4 0zM211.57 638.6 a4.2 4.2 0 1 0 8.4 0 a4.2 4.2 0 1 0 -8.4 0zM175.2 617.6 a4.2 4.2 0 1 0 8.4 0 a4.2 4.2 0 1 0 -8.4 0zM211.57 680.6 a4.2 4.2 0 1 0 8.4 0 a4.2 4.2 0 1 0 -8.4 0zM175.2 701.6 a4.2 4.2 0 1 0 8.4 0 a4.2 4.2 0 1 0 -8.4 0zM247.94 701.6 a4.2 4.2 0 1 0 8.4 0 a4.2 4.2 0 1 0 -8.4 0zM247.94 743.6 a4.2 4.2 0 1 0 8.4 0 a4.2 4.2 0 1 0 -8.4 0zM211.57 764.6 a4.2 4.2 0 1 0 8.4 0 a4.2 4.2 0 1 0 -8.4 0zM175.2 743.6 a4.2 4.2 0 1 0 8.4 0 a4.2 4.2 0 1 0 -8.4 0zM284.32 50.6 a4.2 4.2 0 1 0 8.4 0 a4.2 4.2 0 1 0 -8.4 0zM320.69 71.6 a4.2 4.2 0 1 0 8.4 0 a4.2 4.2 0 1 0 -8.4 0zM320.69 113.6 a4.2 4.2 0 1 0 8.4 0 a4.2 4.2 0 1 0 -8.4 0zM284.32 134.6 a4.2 4.2 0 1 0 8.4 0 a4.2 4.2 0 1 0 -8.4 0zM284.32 176.6 a4.2 4.2 0 1 0 8.4 0 a4.2 4.2 0 1 0 -8.4 0zM320.69 197.6 a4.2 4.2 0 1 0 8.4 0 a4.2 4.2 0 1 0 -8.4 0zM320.69 239.6 a4.2 4.2 0 1 0 8.4 0 a4.2 4.2 0 1 0 -8.4 0zM284.32 260.6 a4.2 4.2 0 1 0 8.4 0 a4.2 4.2 0 1 0 -8.4 0zM247.94 239.6 a4.2 4.2 0 1 0 8.4 0 a4.2 4.2 0 1 0 -8.4 0zM247.94 197.6 a4.2 4.2 0 1 0 8.4 0 a4.2 4.2 0 1 0 -8.4 0zM284.32 302.6 a4.2 4.2 0 1 0 8.4 0 a4.2 4.2 0 1 0 -8.4 0zM247.94 323.6 a4.2 4.2 0 1 0 8.4 0 a4.2 4.2 0 1 0 -8.4 0zM211.57 302.6 a4.2 4.2 0 1 0 8.4 0 a4.2 4.2 0 1 0 -8.4 0zM211.57 260.6 a4.2 4.2 0 1 0 8.4 0 a4.2 4.2 0 1 0 -8.4 0zM320.69 323.6 a4.2 4.2 0 1 0 8.4 0 a4.2 4.2 0 1 0 -8.4 0zM320.69 365.6 a4.2 4.2 0 1 0 8.4 0 a4.2 4.2 0 1 0 -8.4 0zM284.32 386.6 a4.2 4.2 0 1 0 8.4 0 a4.2 4.2 0 1 0 -8.4 0zM247.94 365.6 a4.2 4.2 0 1 0 8.4 0 a4.2 4.2 0 1 0 -8.4 0zM284.32 428.6 a4.2 4.2 0 1 0 8.4 0 a4.2 4.2 0 1 0 -8.4 0zM247.94 449.6 a4.2 4.2 0 1 0 8.4 0 a4.2 4.2 0 1 0 -8.4 0zM211.57 428.6 a4.2 4.2 0 1 0 8.4 0 a4.2 4.2 0 1 0 -8.4 0zM211.57 386.6 a4.2 4.2 0 1 0 8.4 0 a4.2 4.2 0 1 0 -8.4 0zM320.69 449.6 a4.2 4.2 0 1 0 8.4 0 a4.2 4.2 0 1 0 -8.4 0zM320.69 491.6 a4.2 4.2 0 1 0 8.4 0 a4.2 4.2 0 1 0 -8.4 0zM284.32 512.6 a4.2 4.2 0 1 0 8.4 0 a4.2 4.2 0 1 0 -8.4 0zM247.94 491.6 a4.2 4.2 0 1 0 8.4 0 a4.2 4.2 0 1 0 -8.4 0zM284.32 554.6 a4.2 4.2 0 1 0 8.4 0 a4.2 4.2 0 1 0 -8.4 0zM320.69 575.6 a4.2 4.2 0 1 0 8.4 0 a4.2 4.2 0 1 0 -8.4 0zM320.69 617.6 a4.2 4.2 0 1 0 8.4 0 a4.2 4.2 0 1 0 -8.4 0zM284.32 638.6 a4.2 4.2 0 1 0 8.4 0 a4.2 4.2 0 1 0 -8.4 0zM284.32 680.6 a4.2 4.2 0 1 0 8.4 0 a4.2 4.2 0 1 0 -8.4 0zM320.69 701.6 a4.2 4.2 0 1 0 8.4 0 a4.2 4.2 0 1 0 -8.4 0zM320.69 743.6 a4.2 4.2 0 1 0 8.4 0 a4.2 4.2 0 1 0 -8.4 0zM284.32 764.6 a4.2 4.2 0 1 0 8.4 0 a4.2 4.2 0 1 0 -8.4 0zM357.07 50.6 a4.2 4.2 0 1 0 8.4 0 a4.2 4.2 0 1 0 -8.4 0zM393.44 71.6 a4.2 4.2 0 1 0 8.4 0 a4.2 4.2 0 1 0 -8.4 0zM393.44 113.6 a4.2 4.2 0 1 0 8.4 0 a4.2 4.2 0 1 0 -8.4 0zM357.07 134.6 a4.2 4.2 0 1 0 8.4 0 a4.2 4.2 0 1 0 -8.4 0zM357.07 176.6 a4.2 4.2 0 1 0 8.4 0 a4.2 4.2 0 1 0 -8.4 0zM357.07 386.6 a4.2 4.2 0 1 0 8.4 0 a4.2 4.2 0 1 0 -8.4 0zM357.07 428.6 a4.2 4.2 0 1 0 8.4 0 a4.2 4.2 0 1 0 -8.4 0zM393.44 449.6 a4.2 4.2 0 1 0 8.4 0 a4.2 4.2 0 1 0 -8.4 0zM393.44 491.6 a4.2 4.2 0 1 0 8.4 0 a4.2 4.2 0 1 0 -8.4 0zM357.07 512.6 a4.2 4.2 0 1 0 8.4 0 a4.2 4.2 0 1 0 -8.4 0zM393.44 -12.4 a4.2 4.2 0 1 0 8.4 0 a4.2 4.2 0 1 0 -8.4 0zM429.82 8.6 a4.2 4.2 0 1 0 8.4 0 a4.2 4.2 0 1 0 -8.4 0zM429.82 50.6 a4.2 4.2 0 1 0 8.4 0 a4.2 4.2 0 1 0 -8.4 0zM357.07 8.6 a4.2 4.2 0 1 0 8.4 0 a4.2 4.2 0 1 0 -8.4 0zM429.82 302.6 a4.2 4.2 0 1 0 8.4 0 a4.2 4.2 0 1 0 -8.4 0zM466.19 323.6 a4.2 4.2 0 1 0 8.4 0 a4.2 4.2 0 1 0 -8.4 0zM466.19 365.6 a4.2 4.2 0 1 0 8.4 0 a4.2 4.2 0 1 0 -8.4 0zM429.82 386.6 a4.2 4.2 0 1 0 8.4 0 a4.2 4.2 0 1 0 -8.4 0zM393.44 365.6 a4.2 4.2 0 1 0 8.4 0 a4.2 4.2 0 1 0 -8.4 0zM393.44 323.6 a4.2 4.2 0 1 0 8.4 0 a4.2 4.2 0 1 0 -8.4 0zM429.82 428.6 a4.2 4.2 0 1 0 8.4 0 a4.2 4.2 0 1 0 -8.4 0zM466.19 -12.4 a4.2 4.2 0 1 0 8.4 0 a4.2 4.2 0 1 0 -8.4 0zM502.56 8.6 a4.2 4.2 0 1 0 8.4 0 a4.2 4.2 0 1 0 -8.4 0zM502.56 50.6 a4.2 4.2 0 1 0 8.4 0 a4.2 4.2 0 1 0 -8.4 0zM466.19 71.6 a4.2 4.2 0 1 0 8.4 0 a4.2 4.2 0 1 0 -8.4 0zM466.19 239.6 a4.2 4.2 0 1 0 8.4 0 a4.2 4.2 0 1 0 -8.4 0zM502.56 260.6 a4.2 4.2 0 1 0 8.4 0 a4.2 4.2 0 1 0 -8.4 0zM502.56 302.6 a4.2 4.2 0 1 0 8.4 0 a4.2 4.2 0 1 0 -8.4 0zM429.82 260.6 a4.2 4.2 0 1 0 8.4 0 a4.2 4.2 0 1 0 -8.4 0zM502.56 386.6 a4.2 4.2 0 1 0 8.4 0 a4.2 4.2 0 1 0 -8.4 0zM502.56 428.6 a4.2 4.2 0 1 0 8.4 0 a4.2 4.2 0 1 0 -8.4 0zM466.19 449.6 a4.2 4.2 0 1 0 8.4 0 a4.2 4.2 0 1 0 -8.4 0zM538.94 449.6 a4.2 4.2 0 1 0 8.4 0 a4.2 4.2 0 1 0 -8.4 0zM538.94 491.6 a4.2 4.2 0 1 0 8.4 0 a4.2 4.2 0 1 0 -8.4 0zM502.56 512.6 a4.2 4.2 0 1 0 8.4 0 a4.2 4.2 0 1 0 -8.4 0zM466.19 491.6 a4.2 4.2 0 1 0 8.4 0 a4.2 4.2 0 1 0 -8.4 0zM502.56 554.6 a4.2 4.2 0 1 0 8.4 0 a4.2 4.2 0 1 0 -8.4 0zM538.94 575.6 a4.2 4.2 0 1 0 8.4 0 a4.2 4.2 0 1 0 -8.4 0zM538.94 617.6 a4.2 4.2 0 1 0 8.4 0 a4.2 4.2 0 1 0 -8.4 0zM502.56 638.6 a4.2 4.2 0 1 0 8.4 0 a4.2 4.2 0 1 0 -8.4 0zM466.19 617.6 a4.2 4.2 0 1 0 8.4 0 a4.2 4.2 0 1 0 -8.4 0zM466.19 575.6 a4.2 4.2 0 1 0 8.4 0 a4.2 4.2 0 1 0 -8.4 0zM502.56 680.6 a4.2 4.2 0 1 0 8.4 0 a4.2 4.2 0 1 0 -8.4 0zM466.19 701.6 a4.2 4.2 0 1 0 8.4 0 a4.2 4.2 0 1 0 -8.4 0zM429.82 680.6 a4.2 4.2 0 1 0 8.4 0 a4.2 4.2 0 1 0 -8.4 0zM429.82 638.6 a4.2 4.2 0 1 0 8.4 0 a4.2 4.2 0 1 0 -8.4 0zM538.94 701.6 a4.2 4.2 0 1 0 8.4 0 a4.2 4.2 0 1 0 -8.4 0zM538.94 743.6 a4.2 4.2 0 1 0 8.4 0 a4.2 4.2 0 1 0 -8.4 0zM502.56 764.6 a4.2 4.2 0 1 0 8.4 0 a4.2 4.2 0 1 0 -8.4 0zM466.19 743.6 a4.2 4.2 0 1 0 8.4 0 a4.2 4.2 0 1 0 -8.4 0zM575.31 50.6 a4.2 4.2 0 1 0 8.4 0 a4.2 4.2 0 1 0 -8.4 0zM611.69 71.6 a4.2 4.2 0 1 0 8.4 0 a4.2 4.2 0 1 0 -8.4 0zM611.69 113.6 a4.2 4.2 0 1 0 8.4 0 a4.2 4.2 0 1 0 -8.4 0zM575.31 134.6 a4.2 4.2 0 1 0 8.4 0 a4.2 4.2 0 1 0 -8.4 0zM538.94 113.6 a4.2 4.2 0 1 0 8.4 0 a4.2 4.2 0 1 0 -8.4 0zM538.94 71.6 a4.2 4.2 0 1 0 8.4 0 a4.2 4.2 0 1 0 -8.4 0zM575.31 176.6 a4.2 4.2 0 1 0 8.4 0 a4.2 4.2 0 1 0 -8.4 0zM538.94 197.6 a4.2 4.2 0 1 0 8.4 0 a4.2 4.2 0 1 0 -8.4 0zM502.56 176.6 a4.2 4.2 0 1 0 8.4 0 a4.2 4.2 0 1 0 -8.4 0zM502.56 134.6 a4.2 4.2 0 1 0 8.4 0 a4.2 4.2 0 1 0 -8.4 0zM538.94 365.6 a4.2 4.2 0 1 0 8.4 0 a4.2 4.2 0 1 0 -8.4 0zM575.31 386.6 a4.2 4.2 0 1 0 8.4 0 a4.2 4.2 0 1 0 -8.4 0zM575.31 428.6 a4.2 4.2 0 1 0 8.4 0 a4.2 4.2 0 1 0 -8.4 0zM611.69 449.6 a4.2 4.2 0 1 0 8.4 0 a4.2 4.2 0 1 0 -8.4 0zM611.69 491.6 a4.2 4.2 0 1 0 8.4 0 a4.2 4.2 0 1 0 -8.4 0zM575.31 512.6 a4.2 4.2 0 1 0 8.4 0 a4.2 4.2 0 1 0 -8.4 0zM575.31 554.6 a4.2 4.2 0 1 0 8.4 0 a4.2 4.2 0 1 0 -8.4 0zM611.69 575.6 a4.2 4.2 0 1 0 8.4 0 a4.2 4.2 0 1 0 -8.4 0zM611.69 617.6 a4.2 4.2 0 1 0 8.4 0 a4.2 4.2 0 1 0 -8.4 0zM575.31 638.6 a4.2 4.2 0 1 0 8.4 0 a4.2 4.2 0 1 0 -8.4 0zM611.69 -12.4 a4.2 4.2 0 1 0 8.4 0 a4.2 4.2 0 1 0 -8.4 0zM648.06 8.6 a4.2 4.2 0 1 0 8.4 0 a4.2 4.2 0 1 0 -8.4 0zM648.06 50.6 a4.2 4.2 0 1 0 8.4 0 a4.2 4.2 0 1 0 -8.4 0zM575.31 8.6 a4.2 4.2 0 1 0 8.4 0 a4.2 4.2 0 1 0 -8.4 0zM648.06 134.6 a4.2 4.2 0 1 0 8.4 0 a4.2 4.2 0 1 0 -8.4 0zM648.06 176.6 a4.2 4.2 0 1 0 8.4 0 a4.2 4.2 0 1 0 -8.4 0zM611.69 197.6 a4.2 4.2 0 1 0 8.4 0 a4.2 4.2 0 1 0 -8.4 0zM611.69 365.6 a4.2 4.2 0 1 0 8.4 0 a4.2 4.2 0 1 0 -8.4 0zM648.06 386.6 a4.2 4.2 0 1 0 8.4 0 a4.2 4.2 0 1 0 -8.4 0zM648.06 428.6 a4.2 4.2 0 1 0 8.4 0 a4.2 4.2 0 1 0 -8.4 0zM684.43 -12.4 a4.2 4.2 0 1 0 8.4 0 a4.2 4.2 0 1 0 -8.4 0zM720.81 8.6 a4.2 4.2 0 1 0 8.4 0 a4.2 4.2 0 1 0 -8.4 0zM720.81 50.6 a4.2 4.2 0 1 0 8.4 0 a4.2 4.2 0 1 0 -8.4 0zM684.43 71.6 a4.2 4.2 0 1 0 8.4 0 a4.2 4.2 0 1 0 -8.4 0zM720.81 176.6 a4.2 4.2 0 1 0 8.4 0 a4.2 4.2 0 1 0 -8.4 0zM757.18 197.6 a4.2 4.2 0 1 0 8.4 0 a4.2 4.2 0 1 0 -8.4 0zM757.18 239.6 a4.2 4.2 0 1 0 8.4 0 a4.2 4.2 0 1 0 -8.4 0zM720.81 260.6 a4.2 4.2 0 1 0 8.4 0 a4.2 4.2 0 1 0 -8.4 0zM684.43 239.6 a4.2 4.2 0 1 0 8.4 0 a4.2 4.2 0 1 0 -8.4 0zM684.43 197.6 a4.2 4.2 0 1 0 8.4 0 a4.2 4.2 0 1 0 -8.4 0zM720.81 302.6 a4.2 4.2 0 1 0 8.4 0 a4.2 4.2 0 1 0 -8.4 0zM757.18 323.6 a4.2 4.2 0 1 0 8.4 0 a4.2 4.2 0 1 0 -8.4 0zM757.18 365.6 a4.2 4.2 0 1 0 8.4 0 a4.2 4.2 0 1 0 -8.4 0zM720.81 386.6 a4.2 4.2 0 1 0 8.4 0 a4.2 4.2 0 1 0 -8.4 0zM684.43 365.6 a4.2 4.2 0 1 0 8.4 0 a4.2 4.2 0 1 0 -8.4 0zM684.43 323.6 a4.2 4.2 0 1 0 8.4 0 a4.2 4.2 0 1 0 -8.4 0zM720.81 428.6 a4.2 4.2 0 1 0 8.4 0 a4.2 4.2 0 1 0 -8.4 0zM684.43 449.6 a4.2 4.2 0 1 0 8.4 0 a4.2 4.2 0 1 0 -8.4 0zM684.43 617.6 a4.2 4.2 0 1 0 8.4 0 a4.2 4.2 0 1 0 -8.4 0zM720.81 638.6 a4.2 4.2 0 1 0 8.4 0 a4.2 4.2 0 1 0 -8.4 0zM720.81 680.6 a4.2 4.2 0 1 0 8.4 0 a4.2 4.2 0 1 0 -8.4 0zM684.43 701.6 a4.2 4.2 0 1 0 8.4 0 a4.2 4.2 0 1 0 -8.4 0zM648.06 680.6 a4.2 4.2 0 1 0 8.4 0 a4.2 4.2 0 1 0 -8.4 0zM648.06 638.6 a4.2 4.2 0 1 0 8.4 0 a4.2 4.2 0 1 0 -8.4 0zM757.18 701.6 a4.2 4.2 0 1 0 8.4 0 a4.2 4.2 0 1 0 -8.4 0zM757.18 743.6 a4.2 4.2 0 1 0 8.4 0 a4.2 4.2 0 1 0 -8.4 0zM720.81 764.6 a4.2 4.2 0 1 0 8.4 0 a4.2 4.2 0 1 0 -8.4 0zM684.43 743.6 a4.2 4.2 0 1 0 8.4 0 a4.2 4.2 0 1 0 -8.4 0zM757.18 -12.4 a4.2 4.2 0 1 0 8.4 0 a4.2 4.2 0 1 0 -8.4 0zM793.56 8.6 a4.2 4.2 0 1 0 8.4 0 a4.2 4.2 0 1 0 -8.4 0zM793.56 50.6 a4.2 4.2 0 1 0 8.4 0 a4.2 4.2 0 1 0 -8.4 0zM757.18 71.6 a4.2 4.2 0 1 0 8.4 0 a4.2 4.2 0 1 0 -8.4 0zM793.56 260.6 a4.2 4.2 0 1 0 8.4 0 a4.2 4.2 0 1 0 -8.4 0zM793.56 302.6 a4.2 4.2 0 1 0 8.4 0 a4.2 4.2 0 1 0 -8.4 0zM829.93 323.6 a4.2 4.2 0 1 0 8.4 0 a4.2 4.2 0 1 0 -8.4 0zM829.93 365.6 a4.2 4.2 0 1 0 8.4 0 a4.2 4.2 0 1 0 -8.4 0zM793.56 386.6 a4.2 4.2 0 1 0 8.4 0 a4.2 4.2 0 1 0 -8.4 0zM793.56 428.6 a4.2 4.2 0 1 0 8.4 0 a4.2 4.2 0 1 0 -8.4 0zM757.18 449.6 a4.2 4.2 0 1 0 8.4 0 a4.2 4.2 0 1 0 -8.4 0zM757.18 491.6 a4.2 4.2 0 1 0 8.4 0 a4.2 4.2 0 1 0 -8.4 0zM793.56 512.6 a4.2 4.2 0 1 0 8.4 0 a4.2 4.2 0 1 0 -8.4 0zM793.56 554.6 a4.2 4.2 0 1 0 8.4 0 a4.2 4.2 0 1 0 -8.4 0zM757.18 575.6 a4.2 4.2 0 1 0 8.4 0 a4.2 4.2 0 1 0 -8.4 0zM720.81 554.6 a4.2 4.2 0 1 0 8.4 0 a4.2 4.2 0 1 0 -8.4 0zM720.81 512.6 a4.2 4.2 0 1 0 8.4 0 a4.2 4.2 0 1 0 -8.4 0zM829.93 575.6 a4.2 4.2 0 1 0 8.4 0 a4.2 4.2 0 1 0 -8.4 0zM829.93 617.6 a4.2 4.2 0 1 0 8.4 0 a4.2 4.2 0 1 0 -8.4 0zM793.56 638.6 a4.2 4.2 0 1 0 8.4 0 a4.2 4.2 0 1 0 -8.4 0zM757.18 617.6 a4.2 4.2 0 1 0 8.4 0 a4.2 4.2 0 1 0 -8.4 0zM793.56 680.6 a4.2 4.2 0 1 0 8.4 0 a4.2 4.2 0 1 0 -8.4 0zM829.93 -12.4 a4.2 4.2 0 1 0 8.4 0 a4.2 4.2 0 1 0 -8.4 0zM866.3 8.6 a4.2 4.2 0 1 0 8.4 0 a4.2 4.2 0 1 0 -8.4 0zM866.3 50.6 a4.2 4.2 0 1 0 8.4 0 a4.2 4.2 0 1 0 -8.4 0zM829.93 71.6 a4.2 4.2 0 1 0 8.4 0 a4.2 4.2 0 1 0 -8.4 0zM902.68 71.6 a4.2 4.2 0 1 0 8.4 0 a4.2 4.2 0 1 0 -8.4 0zM902.68 113.6 a4.2 4.2 0 1 0 8.4 0 a4.2 4.2 0 1 0 -8.4 0zM866.3 134.6 a4.2 4.2 0 1 0 8.4 0 a4.2 4.2 0 1 0 -8.4 0zM829.93 113.6 a4.2 4.2 0 1 0 8.4 0 a4.2 4.2 0 1 0 -8.4 0zM866.3 176.6 a4.2 4.2 0 1 0 8.4 0 a4.2 4.2 0 1 0 -8.4 0zM829.93 197.6 a4.2 4.2 0 1 0 8.4 0 a4.2 4.2 0 1 0 -8.4 0zM793.56 176.6 a4.2 4.2 0 1 0 8.4 0 a4.2 4.2 0 1 0 -8.4 0zM793.56 134.6 a4.2 4.2 0 1 0 8.4 0 a4.2 4.2 0 1 0 -8.4 0zM902.68 197.6 a4.2 4.2 0 1 0 8.4 0 a4.2 4.2 0 1 0 -8.4 0zM902.68 239.6 a4.2 4.2 0 1 0 8.4 0 a4.2 4.2 0 1 0 -8.4 0zM866.3 260.6 a4.2 4.2 0 1 0 8.4 0 a4.2 4.2 0 1 0 -8.4 0zM829.93 239.6 a4.2 4.2 0 1 0 8.4 0 a4.2 4.2 0 1 0 -8.4 0zM866.3 386.6 a4.2 4.2 0 1 0 8.4 0 a4.2 4.2 0 1 0 -8.4 0zM866.3 428.6 a4.2 4.2 0 1 0 8.4 0 a4.2 4.2 0 1 0 -8.4 0zM829.93 449.6 a4.2 4.2 0 1 0 8.4 0 a4.2 4.2 0 1 0 -8.4 0zM902.68 449.6 a4.2 4.2 0 1 0 8.4 0 a4.2 4.2 0 1 0 -8.4 0zM902.68 491.6 a4.2 4.2 0 1 0 8.4 0 a4.2 4.2 0 1 0 -8.4 0zM866.3 512.6 a4.2 4.2 0 1 0 8.4 0 a4.2 4.2 0 1 0 -8.4 0zM829.93 491.6 a4.2 4.2 0 1 0 8.4 0 a4.2 4.2 0 1 0 -8.4 0zM866.3 554.6 a4.2 4.2 0 1 0 8.4 0 a4.2 4.2 0 1 0 -8.4 0zM866.3 638.6 a4.2 4.2 0 1 0 8.4 0 a4.2 4.2 0 1 0 -8.4 0zM866.3 680.6 a4.2 4.2 0 1 0 8.4 0 a4.2 4.2 0 1 0 -8.4 0zM829.93 701.6 a4.2 4.2 0 1 0 8.4 0 a4.2 4.2 0 1 0 -8.4 0zM902.68 701.6 a4.2 4.2 0 1 0 8.4 0 a4.2 4.2 0 1 0 -8.4 0zM902.68 743.6 a4.2 4.2 0 1 0 8.4 0 a4.2 4.2 0 1 0 -8.4 0zM866.3 764.6 a4.2 4.2 0 1 0 8.4 0 a4.2 4.2 0 1 0 -8.4 0zM829.93 743.6 a4.2 4.2 0 1 0 8.4 0 a4.2 4.2 0 1 0 -8.4 0zM939.05 50.6 a4.2 4.2 0 1 0 8.4 0 a4.2 4.2 0 1 0 -8.4 0zM975.43 71.6 a4.2 4.2 0 1 0 8.4 0 a4.2 4.2 0 1 0 -8.4 0zM975.43 113.6 a4.2 4.2 0 1 0 8.4 0 a4.2 4.2 0 1 0 -8.4 0zM939.05 134.6 a4.2 4.2 0 1 0 8.4 0 a4.2 4.2 0 1 0 -8.4 0zM939.05 176.6 a4.2 4.2 0 1 0 8.4 0 a4.2 4.2 0 1 0 -8.4 0zM975.43 197.6 a4.2 4.2 0 1 0 8.4 0 a4.2 4.2 0 1 0 -8.4 0zM975.43 239.6 a4.2 4.2 0 1 0 8.4 0 a4.2 4.2 0 1 0 -8.4 0zM939.05 260.6 a4.2 4.2 0 1 0 8.4 0 a4.2 4.2 0 1 0 -8.4 0zM939.05 302.6 a4.2 4.2 0 1 0 8.4 0 a4.2 4.2 0 1 0 -8.4 0zM902.68 323.6 a4.2 4.2 0 1 0 8.4 0 a4.2 4.2 0 1 0 -8.4 0zM866.3 302.6 a4.2 4.2 0 1 0 8.4 0 a4.2 4.2 0 1 0 -8.4 0zM902.68 365.6 a4.2 4.2 0 1 0 8.4 0 a4.2 4.2 0 1 0 -8.4 0zM939.05 386.6 a4.2 4.2 0 1 0 8.4 0 a4.2 4.2 0 1 0 -8.4 0zM939.05 428.6 a4.2 4.2 0 1 0 8.4 0 a4.2 4.2 0 1 0 -8.4 0zM975.43 449.6 a4.2 4.2 0 1 0 8.4 0 a4.2 4.2 0 1 0 -8.4 0zM975.43 491.6 a4.2 4.2 0 1 0 8.4 0 a4.2 4.2 0 1 0 -8.4 0zM939.05 512.6 a4.2 4.2 0 1 0 8.4 0 a4.2 4.2 0 1 0 -8.4 0zM939.05 680.6 a4.2 4.2 0 1 0 8.4 0 a4.2 4.2 0 1 0 -8.4 0zM975.43 701.6 a4.2 4.2 0 1 0 8.4 0 a4.2 4.2 0 1 0 -8.4 0zM975.43 743.6 a4.2 4.2 0 1 0 8.4 0 a4.2 4.2 0 1 0 -8.4 0zM939.05 764.6 a4.2 4.2 0 1 0 8.4 0 a4.2 4.2 0 1 0 -8.4 0zM975.43 -12.4 a4.2 4.2 0 1 0 8.4 0 a4.2 4.2 0 1 0 -8.4 0zM1011.8 8.6 a4.2 4.2 0 1 0 8.4 0 a4.2 4.2 0 1 0 -8.4 0zM1011.8 50.6 a4.2 4.2 0 1 0 8.4 0 a4.2 4.2 0 1 0 -8.4 0zM939.05 8.6 a4.2 4.2 0 1 0 8.4 0 a4.2 4.2 0 1 0 -8.4 0zM1048.17 71.6 a4.2 4.2 0 1 0 8.4 0 a4.2 4.2 0 1 0 -8.4 0zM1048.17 113.6 a4.2 4.2 0 1 0 8.4 0 a4.2 4.2 0 1 0 -8.4 0zM1011.8 134.6 a4.2 4.2 0 1 0 8.4 0 a4.2 4.2 0 1 0 -8.4 0zM1011.8 176.6 a4.2 4.2 0 1 0 8.4 0 a4.2 4.2 0 1 0 -8.4 0zM975.43 365.6 a4.2 4.2 0 1 0 8.4 0 a4.2 4.2 0 1 0 -8.4 0zM1011.8 386.6 a4.2 4.2 0 1 0 8.4 0 a4.2 4.2 0 1 0 -8.4 0zM1011.8 428.6 a4.2 4.2 0 1 0 8.4 0 a4.2 4.2 0 1 0 -8.4 0zM1011.8 512.6 a4.2 4.2 0 1 0 8.4 0 a4.2 4.2 0 1 0 -8.4 0zM1011.8 554.6 a4.2 4.2 0 1 0 8.4 0 a4.2 4.2 0 1 0 -8.4 0zM975.43 575.6 a4.2 4.2 0 1 0 8.4 0 a4.2 4.2 0 1 0 -8.4 0zM939.05 554.6 a4.2 4.2 0 1 0 8.4 0 a4.2 4.2 0 1 0 -8.4 0zM1084.55 50.6 a4.2 4.2 0 1 0 8.4 0 a4.2 4.2 0 1 0 -8.4 0zM1120.92 71.6 a4.2 4.2 0 1 0 8.4 0 a4.2 4.2 0 1 0 -8.4 0zM1120.92 113.6 a4.2 4.2 0 1 0 8.4 0 a4.2 4.2 0 1 0 -8.4 0zM1084.55 134.6 a4.2 4.2 0 1 0 8.4 0 a4.2 4.2 0 1 0 -8.4 0zM1084.55 176.6 a4.2 4.2 0 1 0 8.4 0 a4.2 4.2 0 1 0 -8.4 0zM1120.92 197.6 a4.2 4.2 0 1 0 8.4 0 a4.2 4.2 0 1 0 -8.4 0zM1120.92 239.6 a4.2 4.2 0 1 0 8.4 0 a4.2 4.2 0 1 0 -8.4 0zM1084.55 260.6 a4.2 4.2 0 1 0 8.4 0 a4.2 4.2 0 1 0 -8.4 0zM1048.17 239.6 a4.2 4.2 0 1 0 8.4 0 a4.2 4.2 0 1 0 -8.4 0zM1048.17 197.6 a4.2 4.2 0 1 0 8.4 0 a4.2 4.2 0 1 0 -8.4 0zM1084.55 302.6 a4.2 4.2 0 1 0 8.4 0 a4.2 4.2 0 1 0 -8.4 0zM1048.17 323.6 a4.2 4.2 0 1 0 8.4 0 a4.2 4.2 0 1 0 -8.4 0zM1011.8 302.6 a4.2 4.2 0 1 0 8.4 0 a4.2 4.2 0 1 0 -8.4 0zM1011.8 260.6 a4.2 4.2 0 1 0 8.4 0 a4.2 4.2 0 1 0 -8.4 0zM1048.17 491.6 a4.2 4.2 0 1 0 8.4 0 a4.2 4.2 0 1 0 -8.4 0zM1084.55 512.6 a4.2 4.2 0 1 0 8.4 0 a4.2 4.2 0 1 0 -8.4 0zM1084.55 554.6 a4.2 4.2 0 1 0 8.4 0 a4.2 4.2 0 1 0 -8.4 0zM1048.17 575.6 a4.2 4.2 0 1 0 8.4 0 a4.2 4.2 0 1 0 -8.4 0zM1120.92 575.6 a4.2 4.2 0 1 0 8.4 0 a4.2 4.2 0 1 0 -8.4 0zM1120.92 617.6 a4.2 4.2 0 1 0 8.4 0 a4.2 4.2 0 1 0 -8.4 0zM1084.55 638.6 a4.2 4.2 0 1 0 8.4 0 a4.2 4.2 0 1 0 -8.4 0zM1048.17 617.6 a4.2 4.2 0 1 0 8.4 0 a4.2 4.2 0 1 0 -8.4 0zM1084.55 680.6 a4.2 4.2 0 1 0 8.4 0 a4.2 4.2 0 1 0 -8.4 0zM1048.17 701.6 a4.2 4.2 0 1 0 8.4 0 a4.2 4.2 0 1 0 -8.4 0zM1011.8 680.6 a4.2 4.2 0 1 0 8.4 0 a4.2 4.2 0 1 0 -8.4 0zM1011.8 638.6 a4.2 4.2 0 1 0 8.4 0 a4.2 4.2 0 1 0 -8.4 0zM1120.92 701.6 a4.2 4.2 0 1 0 8.4 0 a4.2 4.2 0 1 0 -8.4 0zM1120.92 743.6 a4.2 4.2 0 1 0 8.4 0 a4.2 4.2 0 1 0 -8.4 0zM1084.55 764.6 a4.2 4.2 0 1 0 8.4 0 a4.2 4.2 0 1 0 -8.4 0zM1048.17 743.6 a4.2 4.2 0 1 0 8.4 0 a4.2 4.2 0 1 0 -8.4 0zM1157.3 134.6 a4.2 4.2 0 1 0 8.4 0 a4.2 4.2 0 1 0 -8.4 0zM1157.3 176.6 a4.2 4.2 0 1 0 8.4 0 a4.2 4.2 0 1 0 -8.4 0zM1193.67 197.6 a4.2 4.2 0 1 0 8.4 0 a4.2 4.2 0 1 0 -8.4 0zM1193.67 239.6 a4.2 4.2 0 1 0 8.4 0 a4.2 4.2 0 1 0 -8.4 0zM1157.3 260.6 a4.2 4.2 0 1 0 8.4 0 a4.2 4.2 0 1 0 -8.4 0zM1157.3 302.6 a4.2 4.2 0 1 0 8.4 0 a4.2 4.2 0 1 0 -8.4 0zM1120.92 323.6 a4.2 4.2 0 1 0 8.4 0 a4.2 4.2 0 1 0 -8.4 0zM1193.67 323.6 a4.2 4.2 0 1 0 8.4 0 a4.2 4.2 0 1 0 -8.4 0zM1193.67 365.6 a4.2 4.2 0 1 0 8.4 0 a4.2 4.2 0 1 0 -8.4 0zM1157.3 386.6 a4.2 4.2 0 1 0 8.4 0 a4.2 4.2 0 1 0 -8.4 0zM1120.92 365.6 a4.2 4.2 0 1 0 8.4 0 a4.2 4.2 0 1 0 -8.4 0zM1157.3 428.6 a4.2 4.2 0 1 0 8.4 0 a4.2 4.2 0 1 0 -8.4 0zM1120.92 449.6 a4.2 4.2 0 1 0 8.4 0 a4.2 4.2 0 1 0 -8.4 0zM1084.55 428.6 a4.2 4.2 0 1 0 8.4 0 a4.2 4.2 0 1 0 -8.4 0zM1084.55 386.6 a4.2 4.2 0 1 0 8.4 0 a4.2 4.2 0 1 0 -8.4 0zM1157.3 680.6 a4.2 4.2 0 1 0 8.4 0 a4.2 4.2 0 1 0 -8.4 0zM1193.67 701.6 a4.2 4.2 0 1 0 8.4 0 a4.2 4.2 0 1 0 -8.4 0zM1193.67 743.6 a4.2 4.2 0 1 0 8.4 0 a4.2 4.2 0 1 0 -8.4 0zM1157.3 764.6 a4.2 4.2 0 1 0 8.4 0 a4.2 4.2 0 1 0 -8.4 0zM1193.67 491.6 a4.2 4.2 0 1 0 8.4 0 a4.2 4.2 0 1 0 -8.4 0zM1230.05 512.6 a4.2 4.2 0 1 0 8.4 0 a4.2 4.2 0 1 0 -8.4 0zM1230.05 554.6 a4.2 4.2 0 1 0 8.4 0 a4.2 4.2 0 1 0 -8.4 0zM1193.67 575.6 a4.2 4.2 0 1 0 8.4 0 a4.2 4.2 0 1 0 -8.4 0zM1157.3 554.6 a4.2 4.2 0 1 0 8.4 0 a4.2 4.2 0 1 0 -8.4 0zM1157.3 512.6 a4.2 4.2 0 1 0 8.4 0 a4.2 4.2 0 1 0 -8.4 0zM1193.67 617.6 a4.2 4.2 0 1 0 8.4 0 a4.2 4.2 0 1 0 -8.4 0zM1230.05 638.6 a4.2 4.2 0 1 0 8.4 0 a4.2 4.2 0 1 0 -8.4 0zM1230.05 680.6 a4.2 4.2 0 1 0 8.4 0 a4.2 4.2 0 1 0 -8.4 0zM1157.3 638.6 a4.2 4.2 0 1 0 8.4 0 a4.2 4.2 0 1 0 -8.4 0zM1302.79 176.6 a4.2 4.2 0 1 0 8.4 0 a4.2 4.2 0 1 0 -8.4 0zM1339.17 197.6 a4.2 4.2 0 1 0 8.4 0 a4.2 4.2 0 1 0 -8.4 0zM1339.17 239.6 a4.2 4.2 0 1 0 8.4 0 a4.2 4.2 0 1 0 -8.4 0zM1302.79 260.6 a4.2 4.2 0 1 0 8.4 0 a4.2 4.2 0 1 0 -8.4 0zM1266.42 239.6 a4.2 4.2 0 1 0 8.4 0 a4.2 4.2 0 1 0 -8.4 0zM1266.42 197.6 a4.2 4.2 0 1 0 8.4 0 a4.2 4.2 0 1 0 -8.4 0zM1266.42 365.6 a4.2 4.2 0 1 0 8.4 0 a4.2 4.2 0 1 0 -8.4 0zM1302.79 386.6 a4.2 4.2 0 1 0 8.4 0 a4.2 4.2 0 1 0 -8.4 0zM1302.79 428.6 a4.2 4.2 0 1 0 8.4 0 a4.2 4.2 0 1 0 -8.4 0zM1266.42 449.6 a4.2 4.2 0 1 0 8.4 0 a4.2 4.2 0 1 0 -8.4 0zM1230.05 428.6 a4.2 4.2 0 1 0 8.4 0 a4.2 4.2 0 1 0 -8.4 0zM1230.05 386.6 a4.2 4.2 0 1 0 8.4 0 a4.2 4.2 0 1 0 -8.4 0zM1339.17 449.6 a4.2 4.2 0 1 0 8.4 0 a4.2 4.2 0 1 0 -8.4 0zM1339.17 491.6 a4.2 4.2 0 1 0 8.4 0 a4.2 4.2 0 1 0 -8.4 0zM1302.79 512.6 a4.2 4.2 0 1 0 8.4 0 a4.2 4.2 0 1 0 -8.4 0zM1266.42 491.6 a4.2 4.2 0 1 0 8.4 0 a4.2 4.2 0 1 0 -8.4 0zM1302.79 554.6 a4.2 4.2 0 1 0 8.4 0 a4.2 4.2 0 1 0 -8.4 0zM1339.17 575.6 a4.2 4.2 0 1 0 8.4 0 a4.2 4.2 0 1 0 -8.4 0zM1339.17 617.6 a4.2 4.2 0 1 0 8.4 0 a4.2 4.2 0 1 0 -8.4 0zM1302.79 638.6 a4.2 4.2 0 1 0 8.4 0 a4.2 4.2 0 1 0 -8.4 0zM1266.42 617.6 a4.2 4.2 0 1 0 8.4 0 a4.2 4.2 0 1 0 -8.4 0zM1266.42 575.6 a4.2 4.2 0 1 0 8.4 0 a4.2 4.2 0 1 0 -8.4 0zM1302.79 680.6 a4.2 4.2 0 1 0 8.4 0 a4.2 4.2 0 1 0 -8.4 0zM1266.42 701.6 a4.2 4.2 0 1 0 8.4 0 a4.2 4.2 0 1 0 -8.4 0zM1339.17 113.6 a4.2 4.2 0 1 0 8.4 0 a4.2 4.2 0 1 0 -8.4 0zM1375.54 134.6 a4.2 4.2 0 1 0 8.4 0 a4.2 4.2 0 1 0 -8.4 0zM1375.54 176.6 a4.2 4.2 0 1 0 8.4 0 a4.2 4.2 0 1 0 -8.4 0zM1302.79 134.6 a4.2 4.2 0 1 0 8.4 0 a4.2 4.2 0 1 0 -8.4 0zM1411.92 197.6 a4.2 4.2 0 1 0 8.4 0 a4.2 4.2 0 1 0 -8.4 0zM1411.92 239.6 a4.2 4.2 0 1 0 8.4 0 a4.2 4.2 0 1 0 -8.4 0zM1375.54 260.6 a4.2 4.2 0 1 0 8.4 0 a4.2 4.2 0 1 0 -8.4 0zM1375.54 428.6 a4.2 4.2 0 1 0 8.4 0 a4.2 4.2 0 1 0 -8.4 0zM1411.92 449.6 a4.2 4.2 0 1 0 8.4 0 a4.2 4.2 0 1 0 -8.4 0zM1411.92 491.6 a4.2 4.2 0 1 0 8.4 0 a4.2 4.2 0 1 0 -8.4 0zM1375.54 512.6 a4.2 4.2 0 1 0 8.4 0 a4.2 4.2 0 1 0 -8.4 0zM1375.54 554.6 a4.2 4.2 0 1 0 8.4 0 a4.2 4.2 0 1 0 -8.4 0zM1411.92 575.6 a4.2 4.2 0 1 0 8.4 0 a4.2 4.2 0 1 0 -8.4 0zM1411.92 617.6 a4.2 4.2 0 1 0 8.4 0 a4.2 4.2 0 1 0 -8.4 0zM1375.54 638.6 a4.2 4.2 0 1 0 8.4 0 a4.2 4.2 0 1 0 -8.4 0zM1375.54 680.6 a4.2 4.2 0 1 0 8.4 0 a4.2 4.2 0 1 0 -8.4 0zM1339.17 701.6 a4.2 4.2 0 1 0 8.4 0 a4.2 4.2 0 1 0 -8.4 0zM1411.92 701.6 a4.2 4.2 0 1 0 8.4 0 a4.2 4.2 0 1 0 -8.4 0zM1411.92 743.6 a4.2 4.2 0 1 0 8.4 0 a4.2 4.2 0 1 0 -8.4 0zM1375.54 764.6 a4.2 4.2 0 1 0 8.4 0 a4.2 4.2 0 1 0 -8.4 0zM1339.17 743.6 a4.2 4.2 0 1 0 8.4 0 a4.2 4.2 0 1 0 -8.4 0zM1448.29 176.6 a4.2 4.2 0 1 0 8.4 0 a4.2 4.2 0 1 0 -8.4 0zM1484.66 197.6 a4.2 4.2 0 1 0 8.4 0 a4.2 4.2 0 1 0 -8.4 0zM1484.66 239.6 a4.2 4.2 0 1 0 8.4 0 a4.2 4.2 0 1 0 -8.4 0zM1448.29 260.6 a4.2 4.2 0 1 0 8.4 0 a4.2 4.2 0 1 0 -8.4 0zM1411.92 365.6 a4.2 4.2 0 1 0 8.4 0 a4.2 4.2 0 1 0 -8.4 0zM1448.29 386.6 a4.2 4.2 0 1 0 8.4 0 a4.2 4.2 0 1 0 -8.4 0zM1448.29 428.6 a4.2 4.2 0 1 0 8.4 0 a4.2 4.2 0 1 0 -8.4 0zM1375.54 386.6 a4.2 4.2 0 1 0 8.4 0 a4.2 4.2 0 1 0 -8.4 0zM1448.29 512.6 a4.2 4.2 0 1 0 8.4 0 a4.2 4.2 0 1 0 -8.4 0zM1448.29 554.6 a4.2 4.2 0 1 0 8.4 0 a4.2 4.2 0 1 0 -8.4 0zM1448.29 638.6 a4.2 4.2 0 1 0 8.4 0 a4.2 4.2 0 1 0 -8.4 0zM1448.29 680.6 a4.2 4.2 0 1 0 8.4 0 a4.2 4.2 0 1 0 -8.4 0zM1484.66 -12.4 a4.2 4.2 0 1 0 8.4 0 a4.2 4.2 0 1 0 -8.4 0zM1521.04 8.6 a4.2 4.2 0 1 0 8.4 0 a4.2 4.2 0 1 0 -8.4 0zM1521.04 50.6 a4.2 4.2 0 1 0 8.4 0 a4.2 4.2 0 1 0 -8.4 0zM1484.66 71.6 a4.2 4.2 0 1 0 8.4 0 a4.2 4.2 0 1 0 -8.4 0zM1448.29 50.6 a4.2 4.2 0 1 0 8.4 0 a4.2 4.2 0 1 0 -8.4 0zM1448.29 8.6 a4.2 4.2 0 1 0 8.4 0 a4.2 4.2 0 1 0 -8.4 0zM1484.66 113.6 a4.2 4.2 0 1 0 8.4 0 a4.2 4.2 0 1 0 -8.4 0zM1521.04 134.6 a4.2 4.2 0 1 0 8.4 0 a4.2 4.2 0 1 0 -8.4 0zM1521.04 176.6 a4.2 4.2 0 1 0 8.4 0 a4.2 4.2 0 1 0 -8.4 0zM1448.29 134.6 a4.2 4.2 0 1 0 8.4 0 a4.2 4.2 0 1 0 -8.4 0zM1557.41 197.6 a4.2 4.2 0 1 0 8.4 0 a4.2 4.2 0 1 0 -8.4 0zM1557.41 239.6 a4.2 4.2 0 1 0 8.4 0 a4.2 4.2 0 1 0 -8.4 0zM1521.04 260.6 a4.2 4.2 0 1 0 8.4 0 a4.2 4.2 0 1 0 -8.4 0zM1521.04 302.6 a4.2 4.2 0 1 0 8.4 0 a4.2 4.2 0 1 0 -8.4 0zM1484.66 323.6 a4.2 4.2 0 1 0 8.4 0 a4.2 4.2 0 1 0 -8.4 0zM1448.29 302.6 a4.2 4.2 0 1 0 8.4 0 a4.2 4.2 0 1 0 -8.4 0zM1484.66 491.6 a4.2 4.2 0 1 0 8.4 0 a4.2 4.2 0 1 0 -8.4 0zM1521.04 512.6 a4.2 4.2 0 1 0 8.4 0 a4.2 4.2 0 1 0 -8.4 0zM1521.04 554.6 a4.2 4.2 0 1 0 8.4 0 a4.2 4.2 0 1 0 -8.4 0zM1484.66 575.6 a4.2 4.2 0 1 0 8.4 0 a4.2 4.2 0 1 0 -8.4 0zM1557.41 -12.4 a4.2 4.2 0 1 0 8.4 0 a4.2 4.2 0 1 0 -8.4 0zM1593.79 8.6 a4.2 4.2 0 1 0 8.4 0 a4.2 4.2 0 1 0 -8.4 0zM1593.79 50.6 a4.2 4.2 0 1 0 8.4 0 a4.2 4.2 0 1 0 -8.4 0zM1557.41 71.6 a4.2 4.2 0 1 0 8.4 0 a4.2 4.2 0 1 0 -8.4 0zM1593.79 176.6 a4.2 4.2 0 1 0 8.4 0 a4.2 4.2 0 1 0 -8.4 0zM1630.16 197.6 a4.2 4.2 0 1 0 8.4 0 a4.2 4.2 0 1 0 -8.4 0zM1630.16 239.6 a4.2 4.2 0 1 0 8.4 0 a4.2 4.2 0 1 0 -8.4 0zM1593.79 260.6 a4.2 4.2 0 1 0 8.4 0 a4.2 4.2 0 1 0 -8.4 0zM1593.79 302.6 a4.2 4.2 0 1 0 8.4 0 a4.2 4.2 0 1 0 -8.4 0zM1630.16 323.6 a4.2 4.2 0 1 0 8.4 0 a4.2 4.2 0 1 0 -8.4 0zM1630.16 365.6 a4.2 4.2 0 1 0 8.4 0 a4.2 4.2 0 1 0 -8.4 0zM1593.79 386.6 a4.2 4.2 0 1 0 8.4 0 a4.2 4.2 0 1 0 -8.4 0zM1557.41 365.6 a4.2 4.2 0 1 0 8.4 0 a4.2 4.2 0 1 0 -8.4 0zM1557.41 323.6 a4.2 4.2 0 1 0 8.4 0 a4.2 4.2 0 1 0 -8.4 0zM1593.79 428.6 a4.2 4.2 0 1 0 8.4 0 a4.2 4.2 0 1 0 -8.4 0zM1557.41 449.6 a4.2 4.2 0 1 0 8.4 0 a4.2 4.2 0 1 0 -8.4 0zM1521.04 428.6 a4.2 4.2 0 1 0 8.4 0 a4.2 4.2 0 1 0 -8.4 0zM1521.04 386.6 a4.2 4.2 0 1 0 8.4 0 a4.2 4.2 0 1 0 -8.4 0z" fill="rgba(76, 103, 130, 1)"></path><path d="M74.68 17.88L98.06 31.38L98.06 58.38L74.68 71.88L51.3 58.38L51.3 31.38zM98.06 139.38L121.45 152.88L121.45 179.88L98.06 193.38L74.68 179.88L74.68 152.88zM98.06 301.38L121.45 314.88L121.45 341.88L98.06 355.38L74.68 341.88L74.68 314.88zM98.06 463.38L121.45 476.88L121.45 503.88L98.06 517.38L74.68 503.88L74.68 476.88zM144.83 139.38L168.21 152.88L168.21 179.88L144.83 193.38L121.45 179.88L121.45 152.88zM144.83 463.38L168.21 476.88L168.21 503.88L144.83 517.38L121.45 503.88L121.45 476.88zM191.6 139.38L214.98 152.88L214.98 179.88L191.6 193.38L168.21 179.88L168.21 152.88zM191.6 625.38L214.98 638.88L214.98 665.88L191.6 679.38L168.21 665.88L168.21 638.88zM238.36 382.38L261.75 395.88L261.75 422.88L238.36 436.38L214.98 422.88L214.98 395.88zM285.13 -22.62L308.51 -9.12L308.51 17.88L285.13 31.38L261.75 17.88L261.75 -9.12zM285.13 301.38L308.51 314.88L308.51 341.88L285.13 355.38L261.75 341.88L261.75 314.88zM285.13 544.38L308.51 557.88L308.51 584.88L285.13 598.38L261.75 584.88L261.75 557.88zM355.28 341.88L378.66 355.38L378.66 382.38L355.28 395.88L331.9 382.38L331.9 355.38zM331.9 544.38L355.28 557.88L355.28 584.88L331.9 598.38L308.51 584.88L308.51 557.88zM331.9 625.38L355.28 638.88L355.28 665.88L331.9 679.38L308.51 665.88L308.51 638.88zM402.05 422.88L425.43 436.38L425.43 463.38L402.05 476.88L378.66 463.38L378.66 436.38zM425.43 463.38L448.81 476.88L448.81 503.88L425.43 517.38L402.05 503.88L402.05 476.88zM495.58 17.88L518.96 31.38L518.96 58.38L495.58 71.88L472.2 58.38L472.2 31.38zM542.35 98.88L565.73 112.38L565.73 139.38L542.35 152.88L518.96 139.38L518.96 112.38zM542.35 503.88L565.73 517.38L565.73 544.38L542.35 557.88L518.96 544.38L518.96 517.38zM518.96 544.38L542.35 557.88L542.35 584.88L518.96 598.38L495.58 584.88L495.58 557.88zM589.11 179.88L612.5 193.38L612.5 220.38L589.11 233.88L565.73 220.38L565.73 193.38zM565.73 544.38L589.11 557.88L589.11 584.88L565.73 598.38L542.35 584.88L542.35 557.88zM565.73 625.38L589.11 638.88L589.11 665.88L565.73 679.38L542.35 665.88L542.35 638.88zM635.88 98.88L659.26 112.38L659.26 139.38L635.88 152.88L612.5 139.38L612.5 112.38zM635.88 179.88L659.26 193.38L659.26 220.38L635.88 233.88L612.5 220.38L612.5 193.38zM635.88 503.88L659.26 517.38L659.26 544.38L635.88 557.88L612.5 544.38L612.5 517.38zM659.26 -22.62L682.65 -9.12L682.65 17.88L659.26 31.38L635.88 17.88L635.88 -9.12zM659.26 301.38L682.65 314.88L682.65 341.88L659.26 355.38L635.88 341.88L635.88 314.88zM682.65 422.88L706.03 436.38L706.03 463.38L682.65 476.88L659.26 463.38L659.26 436.38zM706.03 220.38L729.41 233.88L729.41 260.88L706.03 274.38L682.65 260.88L682.65 233.88zM706.03 463.38L729.41 476.88L729.41 503.88L706.03 517.38L682.65 503.88L682.65 476.88zM729.41 503.88L752.8 517.38L752.8 544.38L729.41 557.88L706.03 544.38L706.03 517.38zM706.03 544.38L729.41 557.88L729.41 584.88L706.03 598.38L682.65 584.88L682.65 557.88zM776.18 584.88L799.56 598.38L799.56 625.38L776.18 638.88L752.8 625.38L752.8 598.38zM752.8 625.38L776.18 638.88L776.18 665.88L752.8 679.38L729.41 665.88L729.41 638.88zM822.95 98.88L846.33 112.38L846.33 139.38L822.95 152.88L799.56 139.38L799.56 112.38zM799.56 625.38L822.95 638.88L822.95 665.88L799.56 679.38L776.18 665.88L776.18 638.88zM846.33 301.38L869.71 314.88L869.71 341.88L846.33 355.38L822.95 341.88L822.95 314.88zM846.33 382.38L869.71 395.88L869.71 422.88L846.33 436.38L822.95 422.88L822.95 395.88zM846.33 463.38L869.71 476.88L869.71 503.88L846.33 517.38L822.95 503.88L822.95 476.88zM869.71 503.88L893.1 517.38L893.1 544.38L869.71 557.88L846.33 544.38L846.33 517.38zM893.1 -22.62L916.48 -9.12L916.48 17.88L893.1 31.38L869.71 17.88L869.71 -9.12zM916.48 260.88L939.86 274.38L939.86 301.38L916.48 314.88L893.1 301.38L893.1 274.38zM916.48 341.88L939.86 355.38L939.86 382.38L916.48 395.88L893.1 382.38L893.1 355.38zM939.86 -22.62L963.25 -9.12L963.25 17.88L939.86 31.38L916.48 17.88L916.48 -9.12zM939.86 58.38L963.25 71.88L963.25 98.88L939.86 112.38L916.48 98.88L916.48 71.88zM939.86 301.38L963.25 314.88L963.25 341.88L939.86 355.38L916.48 341.88L916.48 314.88zM963.25 341.88L986.63 355.38L986.63 382.38L963.25 395.88L939.86 382.38L939.86 355.38zM939.86 382.38L963.25 395.88L963.25 422.88L939.86 436.38L916.48 422.88L916.48 395.88zM939.86 463.38L963.25 476.88L963.25 503.88L939.86 517.38L916.48 503.88L916.48 476.88zM939.86 544.38L963.25 557.88L963.25 584.88L939.86 598.38L916.48 584.88L916.48 557.88zM1010.01 98.88L1033.4 112.38L1033.4 139.38L1010.01 152.88L986.63 139.38L986.63 112.38zM1010.01 179.88L1033.4 193.38L1033.4 220.38L1010.01 233.88L986.63 220.38L986.63 193.38zM1056.78 422.88L1080.16 436.38L1080.16 463.38L1056.78 476.88L1033.4 463.38L1033.4 436.38zM1056.78 503.88L1080.16 517.38L1080.16 544.38L1056.78 557.88L1033.4 544.38L1033.4 517.38zM1056.78 665.88L1080.16 679.38L1080.16 706.38L1056.78 719.88L1033.4 706.38L1033.4 679.38zM1103.55 17.88L1126.93 31.38L1126.93 58.38L1103.55 71.88L1080.16 58.38L1080.16 31.38zM1103.55 260.88L1126.93 274.38L1126.93 301.38L1103.55 314.88L1080.16 301.38L1080.16 274.38zM1080.16 544.38L1103.55 557.88L1103.55 584.88L1080.16 598.38L1056.78 584.88L1056.78 557.88zM1126.93 -22.62L1150.31 -9.12L1150.31 17.88L1126.93 31.38L1103.55 17.88L1103.55 -9.12zM1173.7 -22.62L1197.08 -9.12L1197.08 17.88L1173.7 31.38L1150.31 17.88L1150.31 -9.12zM1220.46 544.38L1243.85 557.88L1243.85 584.88L1220.46 598.38L1197.08 584.88L1197.08 557.88zM1290.61 584.88L1314 598.38L1314 625.38L1290.61 638.88L1267.23 625.38L1267.23 598.38zM1267.23 706.38L1290.61 719.88L1290.61 746.88L1267.23 760.38L1243.85 746.88L1243.85 719.88zM1337.38 179.88L1360.76 193.38L1360.76 220.38L1337.38 233.88L1314 220.38L1314 193.38zM1337.38 341.88L1360.76 355.38L1360.76 382.38L1337.38 395.88L1314 382.38L1314 355.38zM1337.38 584.88L1360.76 598.38L1360.76 625.38L1337.38 638.88L1314 625.38L1314 598.38zM1314 706.38L1337.38 719.88L1337.38 746.88L1314 760.38L1290.61 746.88L1290.61 719.88zM1360.76 544.38L1384.15 557.88L1384.15 584.88L1360.76 598.38L1337.38 584.88L1337.38 557.88zM1407.53 -22.62L1430.91 -9.12L1430.91 17.88L1407.53 31.38L1384.15 17.88L1384.15 -9.12zM1430.91 98.88L1454.3 112.38L1454.3 139.38L1430.91 152.88L1407.53 139.38L1407.53 112.38zM1430.91 503.88L1454.3 517.38L1454.3 544.38L1430.91 557.88L1407.53 544.38L1407.53 517.38zM1430.91 584.88L1454.3 598.38L1454.3 625.38L1430.91 638.88L1407.53 625.38L1407.53 598.38zM1454.3 706.38L1477.68 719.88L1477.68 746.88L1454.3 760.38L1430.91 746.88L1430.91 719.88z" stroke="rgba(110, 145, 153, 1)" stroke-width="2"></path></g><defs><mask id="SvgjsMask1721"><rect width="1536" height="719" fill="#ffffff"></rect></mask></defs></svg>