<svg xmlns="http://www.w3.org/2000/svg" version="1.1" xmlns:xlink="http://www.w3.org/1999/xlink" xmlns:svgjs="http://svgjs.com/svgjs" width="1536" height="719" preserveAspectRatio="none" viewBox="0 0 1536 719"><g mask="url(&quot;#SvgjsMask1861&quot;)" fill="none"><rect width="1536" height="719" x="0" y="0" fill="rgba(14, 42, 71, 1)"></rect><use xlink:href="#SvgjsG1868" transform="translate(0, 0)" fill="rgba(15, 69, 123, 1)"></use><use xlink:href="#SvgjsG1868" transform="translate(0, 574.9999999999999)" fill="rgba(15, 69, 123, 1)"></use><use xlink:href="#SvgjsG1868" transform="translate(574.9999999999999, 0)" fill="rgba(15, 69, 123, 1)"></use><use xlink:href="#SvgjsG1868" transform="translate(574.9999999999999, 574.9999999999999)" fill="rgba(15, 69, 123, 1)"></use><use xlink:href="#SvgjsG1868" transform="translate(1149.9999999999998, 0)" fill="rgba(15, 69, 123, 1)"></use><use xlink:href="#SvgjsG1868" transform="translate(1149.9999999999998, 574.9999999999999)" fill="rgba(15, 69, 123, 1)"></use></g><defs><mask id="SvgjsMask1861"><rect width="1536" height="719" fill="#ffffff"></rect></mask><g id="SvgjsG1865"><path d="M3.474 10.969C3.474 7.665 8.077 0.361 8.077 0.361s4.602 7.305 4.602 10.608c0 2.247-1.506 4.771-4.602 4.771-3.095 0-4.603-2.524-4.603-4.771z" fill-rule="evenodd"></path></g><g id="SvgjsG1864"><path d="M10.596 3.917a0.64 0.64 0 0 0-0.639 0.641c0 0.354 0.287 0.64 0.639 0.64a0.639 0.639 0 0 0 0.639-0.64 0.639 0.639 0 0 0-0.639-0.641z m-0.151 5.25a0.642 0.642 0 0 0 0.643 0.641c0.352 0 0.638-0.286 0.637-0.64a0.639 0.639 0 0 0-0.637-0.641 0.641 0.641 0 0 0-0.642 0.641z m-4.678-5.945a0.641 0.641 0 0 0 0 1.282 0.64 0.64 0 0 0 0.642-0.64 0.641 0.641 0 0 0-0.642-0.642z"></path><path d="M8.659 0C5.904 0 3.363 2.068 2.835 4.347c-0.119 0.507-0.25 1.83-0.25 1.829L1.316 9.37A0.488 0.488 0 0 0 1.28 9.561a0.491 0.491 0 0 0 0.491 0.489h0.814v1.697c0 1.323 1.072 2.395 2.394 2.395h0.951V16H12.408V10.847c1.413-1.111 2.32-2.838 2.32-4.775C14.728 2.718 12.01 0 8.659 0z m-4.583 7.387c-0.372 0-0.675-0.304-0.675-0.679a0.677 0.677 0 0 1 0.675-0.677c0.375 0 0.68 0.303 0.68 0.677a0.68 0.68 0 0 1-0.68 0.679z m8.959-0.918l-0.631 0.632-0.77-0.543c-0.148 0.077-0.304 0.139-0.467 0.18l-0.142 0.838h0.294l0.079 0.448c0.031 0.008 0.062 0.013 0.092 0.024 0.079 0.029 0.152 0.067 0.22 0.11l0.355-0.25 0.292 0.291-0.262 0.371c0.056 0.1 0.101 0.206 0.125 0.318l0.429 0.074v0.412l-0.446 0.076c-0.009 0.032-0.013 0.063-0.024 0.094a1.147 1.147 0 0 1-0.112 0.223l0.251 0.353-0.292 0.291-0.369-0.262a1.149 1.149 0 0 1-0.318 0.126l-0.075 0.429H10.851l-0.074-0.448c-0.032-0.009-0.064-0.013-0.096-0.025a1.174 1.174 0 0 1-0.221-0.11l-0.356 0.252L9.815 10.08l0.262-0.37a1.151 1.151 0 0 1-0.125-0.319l-0.431-0.074v-0.411l0.45-0.077c0.008-0.032 0.013-0.063 0.025-0.094 0.029-0.079 0.066-0.152 0.109-0.22l-0.251-0.356 0.291-0.291 0.371 0.262a1.174 1.174 0 0 1 0.317-0.125l0.064-0.372h-0.776L9.96 6.704c-0.035-0.011-0.07-0.02-0.104-0.034a2.221 2.221 0 0 1-0.352-0.168l-0.744 0.524-0.63-0.632 0.542-0.767a2.184 2.184 0 0 1-0.181-0.469l-0.894-0.154V4.27l-0.449 0.078c-0.007 0.022-0.009 0.044-0.017 0.065a1.402 1.402 0 0 1-0.109 0.223l0.345 0.489-0.416 0.414-0.506-0.357a1.438 1.438 0 0 1-0.294 0.116l-0.102 0.586-0.584 0-0.106-0.611c-0.02-0.007-0.042-0.009-0.062-0.017a1.43 1.43 0 0 1-0.226-0.11l-0.49 0.345-0.414-0.415 0.359-0.508a1.485 1.485 0 0 1-0.112-0.291L3.824 4.176V3.589l0.608-0.105c0.007-0.022 0.012-0.043 0.02-0.063 0.029-0.08 0.068-0.154 0.109-0.225l-0.345-0.488 0.413-0.415 0.508 0.358a1.439 1.439 0 0 1 0.295-0.117l0.102-0.586h0.584L6.224 2.56c0.021 0.007 0.043 0.008 0.063 0.016 0.08 0.03 0.154 0.069 0.225 0.11l0.489-0.344 0.415 0.414-0.359 0.507a1.397 1.397 0 0 1 0.115 0.293l0.586 0.101v0.427l0.768-0.132c0.011-0.035 0.02-0.07 0.033-0.105 0.046-0.126 0.104-0.243 0.17-0.355l-0.528-0.74 0.634-0.633 0.77 0.544a2.192 2.192 0 0 1 0.468-0.181l0.151-0.894h0.894l0.162 0.928c0.035 0.01 0.069 0.02 0.104 0.033 0.124 0.046 0.241 0.104 0.352 0.168l0.743-0.523 0.629 0.631-0.542 0.77c0.077 0.148 0.138 0.304 0.18 0.466l0.895 0.154v0.894l-0.929 0.16c-0.011 0.035-0.02 0.07-0.032 0.104-0.046 0.125-0.104 0.242-0.17 0.353l0.525 0.743z"></path></g><g id="SvgjsG1867"><path d="M0.045 14.984h15.726V0H0.045v14.984zM1.389 3.404c0-1.105 0.893-2 2.004-2h9.04a2 2 0 0 1 2.002 2V8.838H13.221l-0.751-2.043a0.317 0.317 0 0 0-0.596 0.004c-0.045 0.125-0.212 0.602-0.42 1.194-0.32-1.336-0.993-4.158-0.993-4.158a0.315 0.315 0 0 0-0.326-0.243c-0.155 0.008-0.28 0.126-0.298 0.28s-0.515 4.598-0.664 5.913c-0.269-0.404-0.536-0.808-0.536-0.809a0.318 0.318 0 0 0-0.264-0.139h-1.221a1168.611 1168.611 0 0 0-0.749-2.043 0.32 0.32 0 0 0-0.301-0.206 0.312 0.312 0 0 0-0.294 0.21l-0.424 1.194c-0.319-1.335-0.992-4.158-0.992-4.157a0.317 0.317 0 0 0-0.624 0.037c0-0.001-0.515 4.596-0.664 5.912L2.567 8.977a0.316 0.316 0 0 0-0.263-0.139H1.389V3.404z m11.043 10.332H3.392a2 2 0 0 1-2.003-2.005v-2.261h0.741c0.156 0.233 0.924 1.389 0.924 1.39a0.318 0.318 0 0 0 0.58-0.14c0.016-0.133 0.341-3.034 0.56-4.975 0.366 1.541 0.821 3.439 0.821 3.439 0.031 0.137 0.15 0.236 0.29 0.243 0.142 0.008 0.269-0.079 0.316-0.211 0 0 0.257-0.731 0.487-1.377 0.243 0.661 0.526 1.423 0.526 1.423a0.312 0.312 0 0 0 0.295 0.208h1.271c0.156 0.232 0.925 1.389 0.925 1.389a0.316 0.316 0 0 0 0.337 0.132c0.131-0.03 0.227-0.14 0.241-0.272s0.342-3.034 0.561-4.976c0.366 1.543 0.819 3.44 0.82 3.44 0.032 0.137 0.15 0.236 0.29 0.243 0.142 0.008 0.269-0.079 0.315-0.211 0 0 0.26-0.731 0.488-1.377 0.242 0.661 0.523 1.423 0.523 1.423a0.315 0.315 0 0 0 0.296 0.208h1.436v2.261a2.001 2.001 0 0 1-2 2.003z" fill-rule="evenodd"></path></g><g id="SvgjsG1863"><path d="M3.044 12.188V8.93c0-2.836 2.475-5.244 5.463-5.245 3.022-0.004 5.465 2.352 5.465 5.245v3.258h1.351V8.93C15.332 5.276 12.27 2.325 8.51 2.325 4.777 2.325 1.689 5.333 1.689 8.93v3.258h1.355z"></path><path d="M5.463 14.702l-1.781 0.006V9.593h1.785c0.921 2.372 0 5.111 0 5.111m6.049-5.109H13.298V14.702l-1.783 0.006c-0.921-2.373 0-5.113 0-5.113"></path></g><g id="SvgjsG1862"><path d="M0 5.2h3.15v5.6H0z"></path><path d="M6.257 14.325L2.407 10.8v-5.511l3.85-3.614L7.141 8z"></path><path d="M6.257 1.675S7.14 4.852 7.14 8s-0.883 6.325-0.883 6.325m7.927 0.947l-1.304-0.671c0.015-0.03 1.562-3.093 1.562-6.825 0-3.707-1.789-6.755-1.807-6.785l1.258-0.754c0.082 0.137 2.015 3.412 2.015 7.538 0 4.101-1.653 7.361-1.724 7.497z"></path><path d="M11.799 13.516l-1.304-0.671c0.011-0.021 1.138-2.258 1.137-4.979 0-2.712-1.301-4.915-1.313-4.937l1.257-0.753c0.063 0.104 1.523 2.579 1.523 5.691 0 3.088-1.248 5.545-1.302 5.649z"></path><path d="M9.543 11.59l-1.304-0.671c0.006-0.012 0.696-1.387 0.696-3.053 0-1.64-0.793-3-0.801-3.013l1.259-0.752c0.041 0.069 1.009 1.708 1.01 3.765 0 2.033-0.823 3.656-0.859 3.724z"></path></g><g id="SvgjsG1866"><path d="M2.713 11.394H2.697v2.51c0.571-0.389 3.611-2.302 4-2.487h4.425c1.527 0 2.766-1.239 2.766-2.766V2.903A2.766 2.766 0 0 0 11.122 0.144h-8.068c-1.525 0-2.766 1.234-2.766 2.766v5.744a2.766 2.766 0 0 0 2.423 2.743z" fill-rule="evenodd"></path></g><g id="SvgjsG1868"><use xlink:href="#SvgjsG1862" transform="translate(0, 0) scale(2.3)" fill="rgba(15, 69, 123, 1)"></use><use xlink:href="#SvgjsG1863" transform="translate(0, 57.49999999999999) scale(2.3)" fill="rgba(15, 69, 123, 1)"></use><use xlink:href="#SvgjsG1864" transform="translate(0, 114.99999999999999) scale(2.3)" fill="rgba(15, 69, 123, 1)"></use><use xlink:href="#SvgjsG1863" transform="translate(0, 172.49999999999997) scale(2.3)" fill="rgba(15, 69, 123, 1)"></use><use xlink:href="#SvgjsG1865" transform="translate(0, 229.99999999999997) scale(2.3)" fill="rgba(15, 69, 123, 1)"></use><use xlink:href="#SvgjsG1862" transform="translate(0, 287.49999999999994) scale(2.3)" fill="rgba(15, 69, 123, 1)"></use><use xlink:href="#SvgjsG1863" transform="translate(0, 344.99999999999994) scale(2.3)" fill="rgba(15, 69, 123, 1)"></use><use xlink:href="#SvgjsG1864" transform="translate(0, 402.49999999999994) scale(2.3)" fill="rgba(15, 69, 123, 1)"></use><use xlink:href="#SvgjsG1863" transform="translate(0, 459.99999999999994) scale(2.3)" fill="rgba(15, 69, 123, 1)"></use><use xlink:href="#SvgjsG1866" transform="translate(0, 517.4999999999999) scale(2.3)" fill="rgba(15, 69, 123, 1)"></use><use xlink:href="#SvgjsG1863" transform="translate(57.49999999999999, 0) scale(2.3)" fill="rgba(15, 69, 123, 1)"></use><use xlink:href="#SvgjsG1863" transform="translate(57.49999999999999, 57.49999999999999) scale(2.3)" fill="rgba(15, 69, 123, 1)"></use><use xlink:href="#SvgjsG1862" transform="translate(57.49999999999999, 114.99999999999999) scale(2.3)" fill="rgba(15, 69, 123, 1)"></use><use xlink:href="#SvgjsG1866" transform="translate(57.49999999999999, 172.49999999999997) scale(2.3)" fill="rgba(15, 69, 123, 1)"></use><use xlink:href="#SvgjsG1865" transform="translate(57.49999999999999, 229.99999999999997) scale(2.3)" fill="rgba(15, 69, 123, 1)"></use><use xlink:href="#SvgjsG1867" transform="translate(57.49999999999999, 287.49999999999994) scale(2.3)" fill="rgba(15, 69, 123, 1)"></use><use xlink:href="#SvgjsG1863" transform="translate(57.49999999999999, 344.99999999999994) scale(2.3)" fill="rgba(15, 69, 123, 1)"></use><use xlink:href="#SvgjsG1866" transform="translate(57.49999999999999, 402.49999999999994) scale(2.3)" fill="rgba(15, 69, 123, 1)"></use><use xlink:href="#SvgjsG1864" transform="translate(57.49999999999999, 459.99999999999994) scale(2.3)" fill="rgba(15, 69, 123, 1)"></use><use xlink:href="#SvgjsG1865" transform="translate(57.49999999999999, 517.4999999999999) scale(2.3)" fill="rgba(15, 69, 123, 1)"></use><use xlink:href="#SvgjsG1866" transform="translate(114.99999999999999, 0) scale(2.3)" fill="rgba(15, 69, 123, 1)"></use><use xlink:href="#SvgjsG1862" transform="translate(114.99999999999999, 57.49999999999999) scale(2.3)" fill="rgba(15, 69, 123, 1)"></use><use xlink:href="#SvgjsG1864" transform="translate(114.99999999999999, 114.99999999999999) scale(2.3)" fill="rgba(15, 69, 123, 1)"></use><use xlink:href="#SvgjsG1867" transform="translate(114.99999999999999, 172.49999999999997) scale(2.3)" fill="rgba(15, 69, 123, 1)"></use><use xlink:href="#SvgjsG1865" transform="translate(114.99999999999999, 229.99999999999997) scale(2.3)" fill="rgba(15, 69, 123, 1)"></use><use xlink:href="#SvgjsG1863" transform="translate(114.99999999999999, 287.49999999999994) scale(2.3)" fill="rgba(15, 69, 123, 1)"></use><use xlink:href="#SvgjsG1864" transform="translate(114.99999999999999, 344.99999999999994) scale(2.3)" fill="rgba(15, 69, 123, 1)"></use><use xlink:href="#SvgjsG1863" transform="translate(114.99999999999999, 402.49999999999994) scale(2.3)" fill="rgba(15, 69, 123, 1)"></use><use xlink:href="#SvgjsG1862" transform="translate(114.99999999999999, 459.99999999999994) scale(2.3)" fill="rgba(15, 69, 123, 1)"></use><use xlink:href="#SvgjsG1864" transform="translate(114.99999999999999, 517.4999999999999) scale(2.3)" fill="rgba(15, 69, 123, 1)"></use><use xlink:href="#SvgjsG1864" transform="translate(172.49999999999997, 0) scale(2.3)" fill="rgba(15, 69, 123, 1)"></use><use xlink:href="#SvgjsG1866" transform="translate(172.49999999999997, 57.49999999999999) scale(2.3)" fill="rgba(15, 69, 123, 1)"></use><use xlink:href="#SvgjsG1864" transform="translate(172.49999999999997, 114.99999999999999) scale(2.3)" fill="rgba(15, 69, 123, 1)"></use><use xlink:href="#SvgjsG1863" transform="translate(172.49999999999997, 172.49999999999997) scale(2.3)" fill="rgba(15, 69, 123, 1)"></use><use xlink:href="#SvgjsG1867" transform="translate(172.49999999999997, 229.99999999999997) scale(2.3)" fill="rgba(15, 69, 123, 1)"></use><use xlink:href="#SvgjsG1865" transform="translate(172.49999999999997, 287.49999999999994) scale(2.3)" fill="rgba(15, 69, 123, 1)"></use><use xlink:href="#SvgjsG1864" transform="translate(172.49999999999997, 344.99999999999994) scale(2.3)" fill="rgba(15, 69, 123, 1)"></use><use xlink:href="#SvgjsG1862" transform="translate(172.49999999999997, 402.49999999999994) scale(2.3)" fill="rgba(15, 69, 123, 1)"></use><use xlink:href="#SvgjsG1865" transform="translate(172.49999999999997, 459.99999999999994) scale(2.3)" fill="rgba(15, 69, 123, 1)"></use><use xlink:href="#SvgjsG1867" transform="translate(172.49999999999997, 517.4999999999999) scale(2.3)" fill="rgba(15, 69, 123, 1)"></use><use xlink:href="#SvgjsG1865" transform="translate(229.99999999999997, 0) scale(2.3)" fill="rgba(15, 69, 123, 1)"></use><use xlink:href="#SvgjsG1863" transform="translate(229.99999999999997, 57.49999999999999) scale(2.3)" fill="rgba(15, 69, 123, 1)"></use><use xlink:href="#SvgjsG1866" transform="translate(229.99999999999997, 114.99999999999999) scale(2.3)" fill="rgba(15, 69, 123, 1)"></use><use xlink:href="#SvgjsG1866" transform="translate(229.99999999999997, 172.49999999999997) scale(2.3)" fill="rgba(15, 69, 123, 1)"></use><use xlink:href="#SvgjsG1866" transform="translate(229.99999999999997, 229.99999999999997) scale(2.3)" fill="rgba(15, 69, 123, 1)"></use><use xlink:href="#SvgjsG1867" transform="translate(229.99999999999997, 287.49999999999994) scale(2.3)" fill="rgba(15, 69, 123, 1)"></use><use xlink:href="#SvgjsG1863" transform="translate(229.99999999999997, 344.99999999999994) scale(2.3)" fill="rgba(15, 69, 123, 1)"></use><use xlink:href="#SvgjsG1866" transform="translate(229.99999999999997, 402.49999999999994) scale(2.3)" fill="rgba(15, 69, 123, 1)"></use><use xlink:href="#SvgjsG1863" transform="translate(229.99999999999997, 459.99999999999994) scale(2.3)" fill="rgba(15, 69, 123, 1)"></use><use xlink:href="#SvgjsG1865" transform="translate(229.99999999999997, 517.4999999999999) scale(2.3)" fill="rgba(15, 69, 123, 1)"></use><use xlink:href="#SvgjsG1865" transform="translate(287.49999999999994, 0) scale(2.3)" fill="rgba(15, 69, 123, 1)"></use><use xlink:href="#SvgjsG1862" transform="translate(287.49999999999994, 57.49999999999999) scale(2.3)" fill="rgba(15, 69, 123, 1)"></use><use xlink:href="#SvgjsG1862" transform="translate(287.49999999999994, 114.99999999999999) scale(2.3)" fill="rgba(15, 69, 123, 1)"></use><use xlink:href="#SvgjsG1862" transform="translate(287.49999999999994, 172.49999999999997) scale(2.3)" fill="rgba(15, 69, 123, 1)"></use><use xlink:href="#SvgjsG1864" transform="translate(287.49999999999994, 229.99999999999997) scale(2.3)" fill="rgba(15, 69, 123, 1)"></use><use xlink:href="#SvgjsG1866" transform="translate(287.49999999999994, 287.49999999999994) scale(2.3)" fill="rgba(15, 69, 123, 1)"></use><use xlink:href="#SvgjsG1867" transform="translate(287.49999999999994, 344.99999999999994) scale(2.3)" fill="rgba(15, 69, 123, 1)"></use><use xlink:href="#SvgjsG1867" transform="translate(287.49999999999994, 402.49999999999994) scale(2.3)" fill="rgba(15, 69, 123, 1)"></use><use xlink:href="#SvgjsG1864" transform="translate(287.49999999999994, 459.99999999999994) scale(2.3)" fill="rgba(15, 69, 123, 1)"></use><use xlink:href="#SvgjsG1865" transform="translate(287.49999999999994, 517.4999999999999) scale(2.3)" fill="rgba(15, 69, 123, 1)"></use><use xlink:href="#SvgjsG1866" transform="translate(344.99999999999994, 0) scale(2.3)" fill="rgba(15, 69, 123, 1)"></use><use xlink:href="#SvgjsG1866" transform="translate(344.99999999999994, 57.49999999999999) scale(2.3)" fill="rgba(15, 69, 123, 1)"></use><use xlink:href="#SvgjsG1862" transform="translate(344.99999999999994, 114.99999999999999) scale(2.3)" fill="rgba(15, 69, 123, 1)"></use><use xlink:href="#SvgjsG1863" transform="translate(344.99999999999994, 172.49999999999997) scale(2.3)" fill="rgba(15, 69, 123, 1)"></use><use xlink:href="#SvgjsG1862" transform="translate(344.99999999999994, 229.99999999999997) scale(2.3)" fill="rgba(15, 69, 123, 1)"></use><use xlink:href="#SvgjsG1862" transform="translate(344.99999999999994, 287.49999999999994) scale(2.3)" fill="rgba(15, 69, 123, 1)"></use><use xlink:href="#SvgjsG1863" transform="translate(344.99999999999994, 344.99999999999994) scale(2.3)" fill="rgba(15, 69, 123, 1)"></use><use xlink:href="#SvgjsG1863" transform="translate(344.99999999999994, 402.49999999999994) scale(2.3)" fill="rgba(15, 69, 123, 1)"></use><use xlink:href="#SvgjsG1865" transform="translate(344.99999999999994, 459.99999999999994) scale(2.3)" fill="rgba(15, 69, 123, 1)"></use><use xlink:href="#SvgjsG1864" transform="translate(344.99999999999994, 517.4999999999999) scale(2.3)" fill="rgba(15, 69, 123, 1)"></use><use xlink:href="#SvgjsG1864" transform="translate(402.49999999999994, 0) scale(2.3)" fill="rgba(15, 69, 123, 1)"></use><use xlink:href="#SvgjsG1866" transform="translate(402.49999999999994, 57.49999999999999) scale(2.3)" fill="rgba(15, 69, 123, 1)"></use><use xlink:href="#SvgjsG1863" transform="translate(402.49999999999994, 114.99999999999999) scale(2.3)" fill="rgba(15, 69, 123, 1)"></use><use xlink:href="#SvgjsG1863" transform="translate(402.49999999999994, 172.49999999999997) scale(2.3)" fill="rgba(15, 69, 123, 1)"></use><use xlink:href="#SvgjsG1864" transform="translate(402.49999999999994, 229.99999999999997) scale(2.3)" fill="rgba(15, 69, 123, 1)"></use><use xlink:href="#SvgjsG1866" transform="translate(402.49999999999994, 287.49999999999994) scale(2.3)" fill="rgba(15, 69, 123, 1)"></use><use xlink:href="#SvgjsG1867" transform="translate(402.49999999999994, 344.99999999999994) scale(2.3)" fill="rgba(15, 69, 123, 1)"></use><use xlink:href="#SvgjsG1867" transform="translate(402.49999999999994, 402.49999999999994) scale(2.3)" fill="rgba(15, 69, 123, 1)"></use><use xlink:href="#SvgjsG1862" transform="translate(402.49999999999994, 459.99999999999994) scale(2.3)" fill="rgba(15, 69, 123, 1)"></use><use xlink:href="#SvgjsG1866" transform="translate(402.49999999999994, 517.4999999999999) scale(2.3)" fill="rgba(15, 69, 123, 1)"></use><use xlink:href="#SvgjsG1864" transform="translate(459.99999999999994, 0) scale(2.3)" fill="rgba(15, 69, 123, 1)"></use><use xlink:href="#SvgjsG1863" transform="translate(459.99999999999994, 57.49999999999999) scale(2.3)" fill="rgba(15, 69, 123, 1)"></use><use xlink:href="#SvgjsG1867" transform="translate(459.99999999999994, 114.99999999999999) scale(2.3)" fill="rgba(15, 69, 123, 1)"></use><use xlink:href="#SvgjsG1866" transform="translate(459.99999999999994, 172.49999999999997) scale(2.3)" fill="rgba(15, 69, 123, 1)"></use><use xlink:href="#SvgjsG1867" transform="translate(459.99999999999994, 229.99999999999997) scale(2.3)" fill="rgba(15, 69, 123, 1)"></use><use xlink:href="#SvgjsG1866" transform="translate(459.99999999999994, 287.49999999999994) scale(2.3)" fill="rgba(15, 69, 123, 1)"></use><use xlink:href="#SvgjsG1864" transform="translate(459.99999999999994, 344.99999999999994) scale(2.3)" fill="rgba(15, 69, 123, 1)"></use><use xlink:href="#SvgjsG1865" transform="translate(459.99999999999994, 402.49999999999994) scale(2.3)" fill="rgba(15, 69, 123, 1)"></use><use xlink:href="#SvgjsG1867" transform="translate(459.99999999999994, 459.99999999999994) scale(2.3)" fill="rgba(15, 69, 123, 1)"></use><use xlink:href="#SvgjsG1862" transform="translate(459.99999999999994, 517.4999999999999) scale(2.3)" fill="rgba(15, 69, 123, 1)"></use><use xlink:href="#SvgjsG1866" transform="translate(517.4999999999999, 0) scale(2.3)" fill="rgba(15, 69, 123, 1)"></use><use xlink:href="#SvgjsG1866" transform="translate(517.4999999999999, 57.49999999999999) scale(2.3)" fill="rgba(15, 69, 123, 1)"></use><use xlink:href="#SvgjsG1867" transform="translate(517.4999999999999, 114.99999999999999) scale(2.3)" fill="rgba(15, 69, 123, 1)"></use><use xlink:href="#SvgjsG1867" transform="translate(517.4999999999999, 172.49999999999997) scale(2.3)" fill="rgba(15, 69, 123, 1)"></use><use xlink:href="#SvgjsG1866" transform="translate(517.4999999999999, 229.99999999999997) scale(2.3)" fill="rgba(15, 69, 123, 1)"></use><use xlink:href="#SvgjsG1864" transform="translate(517.4999999999999, 287.49999999999994) scale(2.3)" fill="rgba(15, 69, 123, 1)"></use><use xlink:href="#SvgjsG1866" transform="translate(517.4999999999999, 344.99999999999994) scale(2.3)" fill="rgba(15, 69, 123, 1)"></use><use xlink:href="#SvgjsG1867" transform="translate(517.4999999999999, 402.49999999999994) scale(2.3)" fill="rgba(15, 69, 123, 1)"></use><use xlink:href="#SvgjsG1867" transform="translate(517.4999999999999, 459.99999999999994) scale(2.3)" fill="rgba(15, 69, 123, 1)"></use><use xlink:href="#SvgjsG1865" transform="translate(517.4999999999999, 517.4999999999999) scale(2.3)" fill="rgba(15, 69, 123, 1)"></use></g></defs></svg>